<svg width="2549" height="1286" viewBox="0 0 2549 1286" fill="none" xmlns="http://www.w3.org/2000/svg">
<line x1="1546" y1="631" x2="1546" y2="399" stroke="#9C9D9C" stroke-width="6"/>
<rect x="179" y="730.5" width="50" height="153" transform="rotate(-180 179 730.5)" fill="#A6DFE6"/>
<line x1="601" y1="886" x2="601" y2="681" stroke="#9D9C9D" stroke-width="6"/>
<line x1="367" y1="886" x2="367" y2="739" stroke="#9D9C9D" stroke-width="6"/>
<line x1="315" y1="886" x2="315" y2="768" stroke="#9D9C9D" stroke-width="6"/>
<line x1="367" y1="709" x2="367" y2="684" stroke="#9D9C9D" stroke-width="6"/>
<line x1="315" y1="735" x2="315" y2="684" stroke="#9D9C9D" stroke-width="6"/>
<line x1="252" y1="824" x2="315" y2="824" stroke="#9D9C9D" stroke-width="6"/>
<line x1="487" y1="886" x2="487" y2="739" stroke="#9D9C9D" stroke-width="6"/>
<line x1="487" y1="709" x2="487" y2="684" stroke="#9D9C9D" stroke-width="6"/>
<line x1="336" y1="601" x2="336" y2="401" stroke="#9C9D9C" stroke-width="6"/>
<line x1="176" y1="403" x2="3" y2="403" stroke="#9C9D9C" stroke-width="6"/>
<line x1="176" y1="862" x2="3" y2="862" stroke="#9C9D9C" stroke-width="6"/>
<line x1="176" y1="1192" x2="3" y2="1192" stroke="#9C9D9C" stroke-width="6"/>
<line x1="298" y1="463" x2="298" y2="449" stroke="#9C9D9C" stroke-width="6"/>
<line x1="294" y1="465" x2="336" y2="465" stroke="#9C9D9C" stroke-width="6"/>
<line x1="254" y1="465" x2="264" y2="465" stroke="#9C9D9C" stroke-width="6"/>
<line x1="748" y1="601" x2="748" y2="401" stroke="#9C9D9C" stroke-width="6"/>
<line x1="837" y1="601" x2="837" y2="401" stroke="#9C9D9C" stroke-width="6"/>
<line x1="1029" y1="601" x2="1029" y2="401" stroke="#9C9D9C" stroke-width="6"/>
<line x1="1151" y1="601" x2="1151" y2="401" stroke="#9C9D9C" stroke-width="6"/>
<line x1="1294" y1="601" x2="1294" y2="401" stroke="#9C9D9C" stroke-width="6"/>
<line x1="735" y1="887" x2="735" y2="682" stroke="#9D9C9D" stroke-width="6"/>
<line x1="1151" y1="887" x2="1151" y2="682" stroke="#9D9C9D" stroke-width="6"/>
<line x1="1151" y1="999" x2="1151" y2="889" stroke="#9D9C9D" stroke-width="6"/>
<line x1="1416" y1="999" x2="1416" y2="889" stroke="#9D9C9D" stroke-width="6"/>
<line x1="962" y1="510" x2="1027" y2="510" stroke="#9C9D9C" stroke-width="6"/>
<line x1="922" y1="511" x2="834" y2="511" stroke="#9C9D9C" stroke-width="6"/>
<line x1="1507" y1="689" x2="1507" y2="699" stroke="#9C9D9C" stroke-width="6"/>
<line x1="1490" y1="761.976" x2="1491" y2="888.976" stroke="#9C9D9C" stroke-width="6"/>
<line x1="1546" y1="765" x2="1530" y2="765" stroke="#9C9D9C" stroke-width="6"/>
<line x1="1500" y1="765" x2="1450" y2="765" stroke="#9C9D9C" stroke-width="6"/>
<line x1="1396" y1="637" x2="1396" y2="405" stroke="#9C9D9C" stroke-width="6"/>
<line x1="1416" y1="887" x2="1416" y2="682" stroke="#9D9C9D" stroke-width="6"/>
<line x1="1546" y1="887" x2="1546" y2="682" stroke="#9D9C9D" stroke-width="6"/>
<line x1="1671" y1="887" x2="1671" y2="682" stroke="#9D9C9D" stroke-width="6"/>
<line x1="2064" y1="887" x2="2064" y2="682" stroke="#9D9C9D" stroke-width="6"/>
<line x1="2297" y1="887" x2="2297" y2="682" stroke="#9D9C9D" stroke-width="6"/>
<line x1="1817" y1="607" x2="1817" y2="402" stroke="#9C9D9C" stroke-width="6"/>
<line x1="1646" y1="607" x2="1646" y2="402" stroke="#9C9D9C" stroke-width="6"/>
<line x1="2163" y1="607" x2="2163" y2="402" stroke="#9C9D9C" stroke-width="6"/>
<line x1="2407" y1="886" x2="2407" y2="681" stroke="#9D9C9D" stroke-width="6"/>
<line x1="2545" y1="779" x2="2457" y2="779" stroke="#9D9C9D" stroke-width="6"/>
<line x1="2427" y1="779" x2="2406" y2="779" stroke="#9D9C9D" stroke-width="6"/>
<line x1="2472" y1="779" x2="2472" y2="750" stroke="#9D9C9D" stroke-width="6"/>
<line x1="2472" y1="720" x2="2472" y2="686" stroke="#9D9C9D" stroke-width="6"/>
<line x1="2266" y1="600" x2="2266" y2="402" stroke="#9C9D9C" stroke-width="6"/>
<line x1="2376" y1="600" x2="2376" y2="402" stroke="#9C9D9C" stroke-width="6"/>
<line x1="2446" y1="504" x2="2446" y2="402" stroke="#9C9D9C" stroke-width="6"/>
<line x1="2446" y1="594" x2="2446" y2="542" stroke="#9C9D9C" stroke-width="6"/>
<line x1="2546" y1="597" x2="2546" y2="402" stroke="#9C9D9C" stroke-width="6"/>
<line x1="2546" y1="889" x2="2546" y2="678" stroke="#9D9C9D" stroke-width="6"/>
<line x1="2449" y1="597" x2="2549" y2="597" stroke="#9D9D9C" stroke-width="6"/>
<path d="M252 1283L179 1283L179 3.99999L252 4L252 403.5L252 1283Z" fill="#A6DFE6"/>
<path d="M119 730.5L119 575.5" stroke="#9D9D9D" stroke-width="3"/>
<path d="M109 730.5L109 575.5" stroke="#9D9D9D" stroke-width="3"/>
<path d="M99 730.5L99 575.5" stroke="#9D9D9D" stroke-width="3"/>
<path d="M89 730.5L89 575.5" stroke="#9D9D9D" stroke-width="3"/>
<path d="M79 730.5L79 575.5" stroke="#9D9D9D" stroke-width="3"/>
<path d="M69 730.5L69 575.5" stroke="#9D9D9D" stroke-width="3"/>
<path d="M59 730.5L59 575.5" stroke="#9D9D9D" stroke-width="3"/>
<path d="M49 730.5L49 575.5" stroke="#9D9D9D" stroke-width="3"/>
<path d="M39 730.5L39 575.5" stroke="#9D9D9D" stroke-width="3"/>
<path d="M29 730.5L29 575.5" stroke="#9D9D9D" stroke-width="3"/>
<line x1="252" y1="886" x2="2549" y2="886" stroke="#9D9D9D" stroke-width="6"/>
<path d="M252 402L271 402M2549 402L302.5 402" stroke="#9D9D9D" stroke-width="6"/>
<line x1="255" y1="1283" x2="482" y2="1283" stroke="#9C9D9C" stroke-width="6"/>
<line x1="255" y1="1179" x2="482" y2="1179" stroke="#9C9D9C" stroke-width="6"/>
<line x1="479" y1="1179" x2="479" y2="1282" stroke="#9C9C9C" stroke-width="6"/>
<path d="M453 1280L453 1182" stroke="#9D9D9D" stroke-width="3"/>
<path d="M443 1280L443 1182" stroke="#9D9D9D" stroke-width="3"/>
<path d="M433 1280L433 1182" stroke="#9D9D9D" stroke-width="3"/>
<path d="M423 1280L423 1182" stroke="#9D9D9D" stroke-width="3"/>
<path d="M413 1280L413 1182" stroke="#9D9D9D" stroke-width="3"/>
<path d="M403 1280L403 1182" stroke="#9D9D9D" stroke-width="3"/>
<path d="M393 1280L393 1182" stroke="#9D9D9D" stroke-width="3"/>
<path d="M383 1280L383 1182" stroke="#9D9D9D" stroke-width="3"/>
<path d="M1399 538L1543 538" stroke="#9D9D9D" stroke-width="3"/>
<path d="M2269 537L2373 537" stroke="#9D9D9D" stroke-width="3"/>
<path d="M1399 528L1543 528" stroke="#9D9D9D" stroke-width="3"/>
<path d="M2269 527L2373 527" stroke="#9D9D9D" stroke-width="3"/>
<path d="M1399 518L1543 518" stroke="#9D9D9D" stroke-width="3"/>
<path d="M2269 517L2373 517" stroke="#9D9D9D" stroke-width="3"/>
<path d="M1399 508L1543 508" stroke="#9D9D9D" stroke-width="3"/>
<path d="M2269 507L2373 507" stroke="#9D9D9D" stroke-width="3"/>
<path d="M1399 498L1543 498" stroke="#9D9D9D" stroke-width="3"/>
<path d="M2269 497L2373 497" stroke="#9D9D9D" stroke-width="3"/>
<path d="M1399 488L1543 488" stroke="#9D9D9D" stroke-width="3"/>
<path d="M2269 487L2373 487" stroke="#9D9D9D" stroke-width="3"/>
<path d="M1399 478L1543 478" stroke="#9D9D9D" stroke-width="3"/>
<path d="M2269 477L2373 477" stroke="#9D9D9D" stroke-width="3"/>
<path d="M1399 468L1543 468" stroke="#9D9D9D" stroke-width="3"/>
<path d="M2269 467L2373 467" stroke="#9D9D9D" stroke-width="3"/>
<path d="M2449 555L2549 555" stroke="#9D9D9D" stroke-width="6"/>
<path d="M2489 525L2549 525" stroke="#9D9D9D" stroke-width="3"/>
<path d="M2489 495L2549 495" stroke="#9D9D9D" stroke-width="3"/>
<path d="M2489 465L2549 465" stroke="#9D9D9D" stroke-width="3"/>
<path d="M2489 435L2549 435" stroke="#9D9D9D" stroke-width="3"/>
<path d="M373 1280L373 1182" stroke="#9D9D9D" stroke-width="3"/>
<path d="M363 1280L363 1182" stroke="#9D9D9D" stroke-width="3"/>
<rect x="257" y="1182" width="96" height="98" fill="#A6DFE6"/>
<rect x="257" y="599" width="2288" height="85" fill="#A6DFE6"/>
<rect x="1154" y="682" width="259" height="317" fill="#A6DFE6"/>
<rect x="1399" y="548" width="144" height="83" fill="#A6DFE6"/>
<rect x="2269" y="547" width="104" height="83" fill="#D9EBDE"/>
<line x1="1399" y1="596" x2="1409" y2="596" stroke="#9D9D9D" stroke-width="6"/>
<line x1="1533" y1="596" x2="1543" y2="596" stroke="#9D9D9D" stroke-width="6"/>
<rect x="2269" y="547" width="104" height="83" fill="#A6DFE6"/>
<path d="M257 361.5L251 361.5L251 6L6 6L6 65L174 65L174 49L180 49L180 132L174 132L174 71L6 71L6 571.5L174 571.5L174 462.5L180 462.5L180 597.5L174 597.5L174 577.5L6 577.5L6 728L174 728L174 714.5L180 714.5L180 759.5L174 759.5L174 734L6 734L6 1030.5L174 1030.5L174 952L180 952L180 1092L174 1092L174 1036.5L6 1036.5L6 1279.5L174 1279.5L174 1243L180 1243L180 1279.5L200 1279.5L200 1285.5L1.06002e-06 1285.5L0 0L257 -2.11922e-07L257 361.5ZM257 1285.5L231.5 1285.5L231.5 1279.5L251 1279.5L251 394L257 394L257 1285.5ZM180 1213L174 1213L174 1121L180 1121L180 1213ZM180 922L174 922L174 788.5L180 788.5L180 922ZM180 424L174 424L174 352L180 352L180 424ZM180 322L174 322L174 167L180 167L180 322Z" fill="#9D9D9D"/>
<rect x="220" y="1207" width="44" height="51" fill="#A6DFE6"/>
<rect x="242" y="610" width="18" height="63" fill="#A6DFE6"/>
<path d="M120 70L120 29" stroke="#9D9D9D" stroke-width="3"/>
<path d="M150 70L150 29" stroke="#9D9D9D" stroke-width="3"/>
<path d="M90 70L90 29" stroke="#9D9D9D" stroke-width="3"/>
<path d="M60 70L60 29" stroke="#9D9D9D" stroke-width="3"/>
<path d="M30 70L30 29" stroke="#9D9D9D" stroke-width="3"/>
<path d="M1231 1005L1148 1005L1148 999L1231 999L1231 1005ZM1419 1005L1326 1005L1326 999L1419 999L1419 1005Z" fill="#9D9C9D"/>
<path d="M2427.01 514L2417.07 477.636H2421.54L2429.14 507.253H2429.49L2437.24 477.636H2442.21L2449.95 507.253H2450.3L2457.9 477.636H2462.38L2452.43 514H2447.89L2439.86 485.023H2439.58L2431.55 514H2427.01ZM2495.42 489H2491.01C2490.75 487.733 2490.3 486.621 2489.65 485.662C2489.01 484.703 2488.23 483.898 2487.3 483.247C2486.39 482.584 2485.38 482.087 2484.27 481.756C2483.15 481.424 2481.99 481.259 2480.79 481.259C2478.58 481.259 2476.59 481.815 2474.8 482.928C2473.03 484.04 2471.61 485.68 2470.56 487.846C2469.52 490.012 2469 492.67 2469 495.818C2469 498.967 2469.52 501.624 2470.56 503.79C2471.61 505.957 2473.03 507.596 2474.8 508.709C2476.59 509.821 2478.58 510.378 2480.79 510.378C2481.99 510.378 2483.15 510.212 2484.27 509.881C2485.38 509.549 2486.39 509.058 2487.3 508.407C2488.23 507.744 2489.01 506.933 2489.65 505.974C2490.3 505.004 2490.75 503.891 2491.01 502.636H2495.42C2495.09 504.495 2494.48 506.158 2493.61 507.626C2492.73 509.094 2491.64 510.342 2490.34 511.372C2489.04 512.39 2487.57 513.165 2485.95 513.698C2484.34 514.231 2482.62 514.497 2480.79 514.497C2477.68 514.497 2474.93 513.74 2472.51 512.224C2470.1 510.709 2468.2 508.555 2466.81 505.761C2465.43 502.968 2464.73 499.653 2464.73 495.818C2464.73 491.983 2465.43 488.669 2466.81 485.875C2468.2 483.081 2470.1 480.927 2472.51 479.412C2474.93 477.897 2477.68 477.139 2480.79 477.139C2482.62 477.139 2484.34 477.406 2485.95 477.938C2487.57 478.471 2489.04 479.252 2490.34 480.282C2491.64 481.3 2492.73 482.543 2493.61 484.011C2494.48 485.467 2495.09 487.13 2495.42 489Z" fill="#A6DFE6"/>
<path d="M53.0085 53L43.0653 16.6364H47.5398L55.1392 46.2528H55.4943L63.2358 16.6364H68.2074L75.9489 46.2528H76.304L83.9034 16.6364H88.3778L78.4347 53H73.8892L65.8636 24.0227H65.5795L57.554 53H53.0085ZM121.417 28H117.013C116.753 26.7334 116.297 25.6207 115.646 24.6619C115.007 23.7031 114.226 22.8982 113.302 22.2472C112.391 21.5843 111.379 21.0871 110.266 20.7557C109.153 20.4242 107.993 20.2585 106.786 20.2585C104.584 20.2585 102.59 20.8149 100.802 21.9276C99.0268 23.0402 97.6123 24.6797 96.5588 26.8459C95.5171 29.0121 94.9963 31.6695 94.9963 34.8182C94.9963 37.9669 95.5171 40.6243 96.5588 42.7905C97.6123 44.9567 99.0268 46.5961 100.802 47.7088C102.59 48.8215 104.584 49.3778 106.786 49.3778C107.993 49.3778 109.153 49.2121 110.266 48.8807C111.379 48.5492 112.391 48.058 113.302 47.407C114.226 46.7441 115.007 45.9332 115.646 44.9744C116.297 44.0038 116.753 42.8911 117.013 41.6364H121.417C121.085 43.4948 120.482 45.1579 119.606 46.6257C118.73 48.0935 117.641 49.3423 116.339 50.3722C115.037 51.3902 113.575 52.1655 111.953 52.6982C110.343 53.2308 108.621 53.4972 106.786 53.4972C103.685 53.4972 100.927 52.7396 98.5119 51.2244C96.0971 49.7093 94.1973 47.5549 92.8123 44.7614C91.4274 41.9678 90.7349 38.6534 90.7349 34.8182C90.7349 30.983 91.4274 27.6686 92.8123 24.875C94.1973 22.0814 96.0971 19.9271 98.5119 18.4119C100.927 16.8968 103.685 16.1392 106.786 16.1392C108.621 16.1392 110.343 16.4055 111.953 16.9382C113.575 17.4709 115.037 18.2521 116.339 19.282C117.641 20.3 118.73 21.5428 119.606 23.0107C120.482 24.4666 121.085 26.1297 121.417 28Z" fill="#A6DFE6"/>
<path d="M2194.9 480.455V511H2191.2V484.332H2191.02L2183.57 489.284V485.526L2191.2 480.455H2194.9ZM2204.51 511.239C2203.77 511.239 2203.14 510.975 2202.61 510.448C2202.08 509.921 2201.82 509.29 2201.82 508.554C2201.82 507.818 2202.08 507.187 2202.61 506.66C2203.14 506.133 2203.77 505.869 2204.51 505.869C2205.24 505.869 2205.87 506.133 2206.4 506.66C2206.93 507.187 2207.19 507.818 2207.19 508.554C2207.19 509.041 2207.07 509.489 2206.82 509.896C2206.58 510.304 2206.26 510.632 2205.85 510.881C2205.45 511.119 2205 511.239 2204.51 511.239ZM2222.34 511.418C2220.1 511.418 2218.18 510.806 2216.6 509.583C2215.02 508.35 2213.81 506.565 2212.98 504.229C2212.14 501.882 2211.72 499.048 2211.72 495.727C2211.72 492.426 2212.14 489.607 2212.98 487.271C2213.82 484.924 2215.04 483.134 2216.62 481.901C2218.21 480.658 2220.12 480.037 2222.34 480.037C2224.57 480.037 2226.48 480.658 2228.06 481.901C2229.65 483.134 2230.86 484.924 2231.7 487.271C2232.54 489.607 2232.96 492.426 2232.96 495.727C2232.96 499.048 2232.55 501.882 2231.71 504.229C2230.88 506.565 2229.67 508.35 2228.09 509.583C2226.5 510.806 2224.59 511.418 2222.34 511.418ZM2222.34 508.136C2224.57 508.136 2226.3 507.062 2227.53 504.915C2228.77 502.767 2229.38 499.705 2229.38 495.727C2229.38 493.082 2229.1 490.83 2228.53 488.971C2227.98 487.112 2227.17 485.695 2226.12 484.72C2225.07 483.746 2223.82 483.259 2222.34 483.259C2220.14 483.259 2218.41 484.347 2217.17 486.525C2215.93 488.692 2215.3 491.76 2215.3 495.727C2215.3 498.372 2215.58 500.619 2216.14 502.469C2216.7 504.318 2217.5 505.725 2218.54 506.69C2219.59 507.654 2220.86 508.136 2222.34 508.136ZM2249.37 480.455V511H2245.67V484.332H2245.49L2238.03 489.284V485.526L2245.67 480.455H2249.37Z" fill="#9D9D9D"/>
<path d="M1975.9 480.455V511H1972.2V484.332H1972.02L1964.57 489.284V485.526L1972.2 480.455H1975.9ZM1985.51 511.239C1984.77 511.239 1984.14 510.975 1983.61 510.448C1983.08 509.921 1982.82 509.29 1982.82 508.554C1982.82 507.818 1983.08 507.187 1983.61 506.66C1984.14 506.133 1984.77 505.869 1985.51 505.869C1986.24 505.869 1986.87 506.133 1987.4 506.66C1987.93 507.187 1988.19 507.818 1988.19 508.554C1988.19 509.041 1988.07 509.489 1987.82 509.896C1987.58 510.304 1987.26 510.632 1986.85 510.881C1986.45 511.119 1986 511.239 1985.51 511.239ZM2003.34 511.418C2001.1 511.418 1999.18 510.806 1997.6 509.583C1996.02 508.35 1994.81 506.565 1993.98 504.229C1993.14 501.882 1992.72 499.048 1992.72 495.727C1992.72 492.426 1993.14 489.607 1993.98 487.271C1994.82 484.924 1996.04 483.134 1997.62 481.901C1999.21 480.658 2001.12 480.037 2003.34 480.037C2005.57 480.037 2007.48 480.658 2009.06 481.901C2010.65 483.134 2011.86 484.924 2012.7 487.271C2013.54 489.607 2013.96 492.426 2013.96 495.727C2013.96 499.048 2013.55 501.882 2012.71 504.229C2011.88 506.565 2010.67 508.35 2009.09 509.583C2007.5 510.806 2005.59 511.418 2003.34 511.418ZM2003.34 508.136C2005.57 508.136 2007.3 507.062 2008.53 504.915C2009.77 502.767 2010.38 499.705 2010.38 495.727C2010.38 493.082 2010.1 490.83 2009.53 488.971C2008.98 487.112 2008.17 485.695 2007.12 484.72C2006.07 483.746 2004.82 483.259 2003.34 483.259C2001.14 483.259 1999.41 484.347 1998.17 486.525C1996.93 488.692 1996.3 491.76 1996.3 495.727C1996.3 498.372 1996.58 500.619 1997.14 502.469C1997.7 504.318 1998.5 505.725 1999.54 506.69C2000.59 507.654 2001.86 508.136 2003.34 508.136ZM2019.63 511V508.315L2029.71 497.278C2030.9 495.986 2031.87 494.862 2032.64 493.908C2033.4 492.943 2033.97 492.038 2034.34 491.193C2034.71 490.338 2034.9 489.443 2034.9 488.509C2034.9 487.435 2034.64 486.505 2034.13 485.719C2033.62 484.934 2032.92 484.327 2032.04 483.9C2031.15 483.472 2030.16 483.259 2029.06 483.259C2027.88 483.259 2026.86 483.502 2025.98 483.989C2025.12 484.467 2024.45 485.138 2023.97 486.003C2023.5 486.868 2023.27 487.882 2023.27 489.045H2019.75C2019.75 487.256 2020.16 485.685 2020.99 484.332C2021.81 482.98 2022.94 481.926 2024.36 481.17C2025.79 480.415 2027.4 480.037 2029.18 480.037C2030.97 480.037 2032.55 480.415 2033.93 481.17C2035.32 481.926 2036.4 482.945 2037.19 484.228C2037.97 485.511 2038.36 486.938 2038.36 488.509C2038.36 489.632 2038.16 490.731 2037.75 491.805C2037.35 492.869 2036.66 494.057 2035.66 495.369C2034.68 496.672 2033.31 498.263 2031.56 500.142L2024.7 507.48V507.719H2038.9V511H2019.63Z" fill="#9D9D9D"/>
<path d="M1701.9 480.455V511H1698.2V484.332H1698.02L1690.57 489.284V485.526L1698.2 480.455H1701.9ZM1711.51 511.239C1710.77 511.239 1710.14 510.975 1709.61 510.448C1709.08 509.921 1708.82 509.29 1708.82 508.554C1708.82 507.818 1709.08 507.187 1709.61 506.66C1710.14 506.133 1710.77 505.869 1711.51 505.869C1712.24 505.869 1712.87 506.133 1713.4 506.66C1713.93 507.187 1714.19 507.818 1714.19 508.554C1714.19 509.041 1714.07 509.489 1713.82 509.896C1713.58 510.304 1713.26 510.632 1712.85 510.881C1712.45 511.119 1712 511.239 1711.51 511.239ZM1729.34 511.418C1727.1 511.418 1725.18 510.806 1723.6 509.583C1722.02 508.35 1720.81 506.565 1719.98 504.229C1719.14 501.882 1718.72 499.048 1718.72 495.727C1718.72 492.426 1719.14 489.607 1719.98 487.271C1720.82 484.924 1722.04 483.134 1723.62 481.901C1725.21 480.658 1727.12 480.037 1729.34 480.037C1731.57 480.037 1733.48 480.658 1735.06 481.901C1736.65 483.134 1737.86 484.924 1738.7 487.271C1739.54 489.607 1739.96 492.426 1739.96 495.727C1739.96 499.048 1739.55 501.882 1738.71 504.229C1737.88 506.565 1736.67 508.35 1735.09 509.583C1733.5 510.806 1731.59 511.418 1729.34 511.418ZM1729.34 508.136C1731.57 508.136 1733.3 507.062 1734.53 504.915C1735.77 502.767 1736.38 499.705 1736.38 495.727C1736.38 493.082 1736.1 490.83 1735.53 488.971C1734.98 487.112 1734.17 485.695 1733.12 484.72C1732.07 483.746 1730.82 483.259 1729.34 483.259C1727.14 483.259 1725.41 484.347 1724.17 486.525C1722.93 488.692 1722.3 491.76 1722.3 495.727C1722.3 498.372 1722.58 500.619 1723.14 502.469C1723.7 504.318 1724.5 505.725 1725.54 506.69C1726.59 507.654 1727.86 508.136 1729.34 508.136ZM1755.95 511.418C1753.98 511.418 1752.23 511.08 1750.69 510.403C1749.16 509.727 1747.94 508.788 1747.03 507.585C1746.14 506.371 1745.65 504.964 1745.57 503.364H1749.33C1749.41 504.348 1749.75 505.198 1750.34 505.914C1750.94 506.62 1751.72 507.167 1752.69 507.555C1753.65 507.942 1754.72 508.136 1755.89 508.136C1757.2 508.136 1758.37 507.908 1759.38 507.45C1760.4 506.993 1761.19 506.357 1761.77 505.541C1762.35 504.726 1762.63 503.781 1762.63 502.707C1762.63 501.584 1762.36 500.594 1761.8 499.739C1761.24 498.874 1760.43 498.198 1759.35 497.711C1758.28 497.224 1756.97 496.98 1755.41 496.98H1752.97V493.699H1755.41C1756.63 493.699 1757.69 493.48 1758.61 493.043C1759.53 492.605 1760.25 491.989 1760.77 491.193C1761.3 490.398 1761.56 489.463 1761.56 488.389C1761.56 487.355 1761.33 486.455 1760.87 485.69C1760.42 484.924 1759.77 484.327 1758.93 483.9C1758.11 483.472 1757.13 483.259 1756.01 483.259C1754.96 483.259 1753.96 483.452 1753.03 483.84C1752.1 484.218 1751.35 484.77 1750.76 485.496C1750.17 486.212 1749.86 487.077 1749.81 488.091H1746.23C1746.29 486.49 1746.77 485.088 1747.67 483.885C1748.58 482.672 1749.76 481.727 1751.22 481.051C1752.7 480.375 1754.31 480.037 1756.07 480.037C1757.96 480.037 1759.58 480.42 1760.93 481.185C1762.29 481.941 1763.32 482.94 1764.05 484.183C1764.78 485.426 1765.14 486.768 1765.14 488.21C1765.14 489.93 1764.69 491.397 1763.78 492.61C1762.89 493.823 1761.67 494.663 1760.13 495.131V495.369C1762.06 495.687 1763.56 496.508 1764.65 497.83C1765.73 499.143 1766.27 500.768 1766.27 502.707C1766.27 504.368 1765.82 505.859 1764.92 507.182C1764.02 508.494 1762.8 509.528 1761.25 510.284C1759.7 511.04 1757.93 511.418 1755.95 511.418Z" fill="#9D9D9D"/>
<path d="M1568.9 480.455V511H1565.2V484.332H1565.02L1557.57 489.284V485.526L1565.2 480.455H1568.9ZM1578.51 511.239C1577.77 511.239 1577.14 510.975 1576.61 510.448C1576.08 509.921 1575.82 509.29 1575.82 508.554C1575.82 507.818 1576.08 507.187 1576.61 506.66C1577.14 506.133 1577.77 505.869 1578.51 505.869C1579.24 505.869 1579.87 506.133 1580.4 506.66C1580.93 507.187 1581.19 507.818 1581.19 508.554C1581.19 509.041 1581.07 509.489 1580.82 509.896C1580.58 510.304 1580.26 510.632 1579.85 510.881C1579.45 511.119 1579 511.239 1578.51 511.239ZM1596.34 511.418C1594.1 511.418 1592.18 510.806 1590.6 509.583C1589.02 508.35 1587.81 506.565 1586.98 504.229C1586.14 501.882 1585.72 499.048 1585.72 495.727C1585.72 492.426 1586.14 489.607 1586.98 487.271C1587.82 484.924 1589.04 483.134 1590.62 481.901C1592.21 480.658 1594.12 480.037 1596.34 480.037C1598.57 480.037 1600.48 480.658 1602.06 481.901C1603.65 483.134 1604.86 484.924 1605.7 487.271C1606.54 489.607 1606.96 492.426 1606.96 495.727C1606.96 499.048 1606.55 501.882 1605.71 504.229C1604.88 506.565 1603.67 508.35 1602.09 509.583C1600.5 510.806 1598.59 511.418 1596.34 511.418ZM1596.34 508.136C1598.57 508.136 1600.3 507.062 1601.53 504.915C1602.77 502.767 1603.38 499.705 1603.38 495.727C1603.38 493.082 1603.1 490.83 1602.53 488.971C1601.98 487.112 1601.17 485.695 1600.12 484.72C1599.07 483.746 1597.82 483.259 1596.34 483.259C1594.14 483.259 1592.41 484.347 1591.17 486.525C1589.93 488.692 1589.3 491.76 1589.3 495.727C1589.3 498.372 1589.58 500.619 1590.14 502.469C1590.7 504.318 1591.5 505.725 1592.54 506.69C1593.59 507.654 1594.86 508.136 1596.34 508.136ZM1611.91 504.736V501.693L1625.34 480.455H1627.55V485.168H1626.05L1615.91 501.216V501.455H1633.99V504.736H1611.91ZM1626.29 511V503.811V502.394V480.455H1629.81V511H1626.29Z" fill="#9D9D9D"/>
<path d="M1317.9 480.455V511H1314.2V484.332H1314.02L1306.57 489.284V485.526L1314.2 480.455H1317.9ZM1327.51 511.239C1326.77 511.239 1326.14 510.975 1325.61 510.448C1325.08 509.921 1324.82 509.29 1324.82 508.554C1324.82 507.818 1325.08 507.187 1325.61 506.66C1326.14 506.133 1326.77 505.869 1327.51 505.869C1328.24 505.869 1328.87 506.133 1329.4 506.66C1329.93 507.187 1330.19 507.818 1330.19 508.554C1330.19 509.041 1330.07 509.489 1329.82 509.896C1329.58 510.304 1329.26 510.632 1328.85 510.881C1328.45 511.119 1328 511.239 1327.51 511.239ZM1345.34 511.418C1343.1 511.418 1341.18 510.806 1339.6 509.583C1338.02 508.35 1336.81 506.565 1335.98 504.229C1335.14 501.882 1334.72 499.048 1334.72 495.727C1334.72 492.426 1335.14 489.607 1335.98 487.271C1336.82 484.924 1338.04 483.134 1339.62 481.901C1341.21 480.658 1343.12 480.037 1345.34 480.037C1347.57 480.037 1349.48 480.658 1351.06 481.901C1352.65 483.134 1353.86 484.924 1354.7 487.271C1355.54 489.607 1355.96 492.426 1355.96 495.727C1355.96 499.048 1355.55 501.882 1354.71 504.229C1353.88 506.565 1352.67 508.35 1351.09 509.583C1349.5 510.806 1347.59 511.418 1345.34 511.418ZM1345.34 508.136C1347.57 508.136 1349.3 507.062 1350.53 504.915C1351.77 502.767 1352.38 499.705 1352.38 495.727C1352.38 493.082 1352.1 490.83 1351.53 488.971C1350.98 487.112 1350.17 485.695 1349.12 484.72C1348.07 483.746 1346.82 483.259 1345.34 483.259C1343.14 483.259 1341.41 484.347 1340.17 486.525C1338.93 488.692 1338.3 491.76 1338.3 495.727C1338.3 498.372 1338.58 500.619 1339.14 502.469C1339.7 504.318 1340.5 505.725 1341.54 506.69C1342.59 507.654 1343.86 508.136 1345.34 508.136ZM1371.18 511.418C1369.43 511.418 1367.85 511.07 1366.45 510.374C1365.05 509.678 1363.92 508.723 1363.08 507.51C1362.23 506.297 1361.77 504.915 1361.69 503.364H1365.27C1365.41 504.746 1366.04 505.889 1367.15 506.794C1368.27 507.689 1369.62 508.136 1371.18 508.136C1372.43 508.136 1373.54 507.843 1374.52 507.256C1375.5 506.67 1376.27 505.864 1376.83 504.84C1377.4 503.806 1377.68 502.638 1377.68 501.335C1377.68 500.003 1377.39 498.815 1376.8 497.771C1376.22 496.717 1375.43 495.886 1374.41 495.28C1373.4 494.673 1372.24 494.365 1370.94 494.355C1370 494.345 1369.04 494.489 1368.06 494.788C1367.07 495.076 1366.26 495.449 1365.63 495.906L1362.17 495.489L1364.02 480.455H1379.89V483.736H1367.12L1366.05 492.744H1366.22C1366.85 492.247 1367.64 491.835 1368.58 491.506C1369.53 491.178 1370.51 491.014 1371.53 491.014C1373.4 491.014 1375.07 491.462 1376.53 492.357C1378 493.241 1379.16 494.455 1379.99 495.996C1380.84 497.537 1381.26 499.297 1381.26 501.276C1381.26 503.224 1380.82 504.964 1379.95 506.496C1379.08 508.017 1377.89 509.22 1376.37 510.105C1374.85 510.98 1373.12 511.418 1371.18 511.418Z" fill="#9D9D9D"/>
<path d="M1189.9 480.455V511H1186.2V484.332H1186.02L1178.57 489.284V485.526L1186.2 480.455H1189.9ZM1199.51 511.239C1198.77 511.239 1198.14 510.975 1197.61 510.448C1197.08 509.921 1196.82 509.29 1196.82 508.554C1196.82 507.818 1197.08 507.187 1197.61 506.66C1198.14 506.133 1198.77 505.869 1199.51 505.869C1200.24 505.869 1200.87 506.133 1201.4 506.66C1201.93 507.187 1202.19 507.818 1202.19 508.554C1202.19 509.041 1202.07 509.489 1201.82 509.896C1201.58 510.304 1201.26 510.632 1200.85 510.881C1200.45 511.119 1200 511.239 1199.51 511.239ZM1217.34 511.418C1215.1 511.418 1213.18 510.806 1211.6 509.583C1210.02 508.35 1208.81 506.565 1207.98 504.229C1207.14 501.882 1206.72 499.048 1206.72 495.727C1206.72 492.426 1207.14 489.607 1207.98 487.271C1208.82 484.924 1210.04 483.134 1211.62 481.901C1213.21 480.658 1215.12 480.037 1217.34 480.037C1219.57 480.037 1221.48 480.658 1223.06 481.901C1224.65 483.134 1225.86 484.924 1226.7 487.271C1227.54 489.607 1227.96 492.426 1227.96 495.727C1227.96 499.048 1227.55 501.882 1226.71 504.229C1225.88 506.565 1224.67 508.35 1223.09 509.583C1221.5 510.806 1219.59 511.418 1217.34 511.418ZM1217.34 508.136C1219.57 508.136 1221.3 507.062 1222.53 504.915C1223.77 502.767 1224.38 499.705 1224.38 495.727C1224.38 493.082 1224.1 490.83 1223.53 488.971C1222.98 487.112 1222.17 485.695 1221.12 484.72C1220.07 483.746 1218.82 483.259 1217.34 483.259C1215.14 483.259 1213.41 484.347 1212.17 486.525C1210.93 488.692 1210.3 491.76 1210.3 495.727C1210.3 498.372 1210.58 500.619 1211.14 502.469C1211.7 504.318 1212.5 505.725 1213.54 506.69C1214.59 507.654 1215.86 508.136 1217.34 508.136ZM1243.77 511.418C1242.52 511.398 1241.27 511.159 1240.01 510.702C1238.76 510.244 1237.62 509.474 1236.58 508.39C1235.55 507.296 1234.72 505.82 1234.09 503.96C1233.47 502.091 1233.15 499.744 1233.15 496.92C1233.15 494.216 1233.41 491.82 1233.91 489.732C1234.42 487.634 1235.16 485.869 1236.12 484.437C1237.09 482.995 1238.25 481.901 1239.61 481.156C1240.98 480.41 1242.53 480.037 1244.25 480.037C1245.96 480.037 1247.48 480.38 1248.81 481.066C1250.16 481.742 1251.25 482.687 1252.1 483.9C1252.94 485.113 1253.49 486.51 1253.74 488.091H1250.1C1249.76 486.719 1249.1 485.58 1248.13 484.675C1247.15 483.771 1245.86 483.318 1244.25 483.318C1241.88 483.318 1240.02 484.347 1238.66 486.406C1237.3 488.464 1236.62 491.352 1236.61 495.071H1236.85C1237.41 494.226 1238.07 493.505 1238.84 492.908C1239.61 492.302 1240.47 491.835 1241.4 491.506C1242.34 491.178 1243.33 491.014 1244.37 491.014C1246.12 491.014 1247.72 491.452 1249.17 492.327C1250.62 493.192 1251.79 494.39 1252.66 495.921C1253.54 497.442 1253.97 499.188 1253.97 501.156C1253.97 503.045 1253.55 504.776 1252.71 506.347C1251.86 507.908 1250.67 509.151 1249.14 510.075C1247.62 510.99 1245.83 511.438 1243.77 511.418ZM1243.77 508.136C1245.03 508.136 1246.15 507.823 1247.14 507.197C1248.15 506.57 1248.94 505.73 1249.51 504.676C1250.1 503.622 1250.39 502.449 1250.39 501.156C1250.39 499.893 1250.11 498.745 1249.54 497.711C1248.99 496.667 1248.22 495.837 1247.23 495.22C1246.26 494.604 1245.14 494.295 1243.89 494.295C1242.95 494.295 1242.07 494.484 1241.25 494.862C1240.44 495.23 1239.72 495.737 1239.1 496.384C1238.5 497.03 1238.02 497.771 1237.67 498.606C1237.32 499.431 1237.15 500.301 1237.15 501.216C1237.15 502.429 1237.43 503.562 1238 504.616C1238.58 505.67 1239.36 506.521 1240.36 507.167C1241.36 507.813 1242.5 508.136 1243.77 508.136Z" fill="#9D9D9D"/>
<path d="M1060.9 480.455V511H1057.2V484.332H1057.02L1049.57 489.284V485.526L1057.2 480.455H1060.9ZM1070.51 511.239C1069.77 511.239 1069.14 510.975 1068.61 510.448C1068.08 509.921 1067.82 509.29 1067.82 508.554C1067.82 507.818 1068.08 507.187 1068.61 506.66C1069.14 506.133 1069.77 505.869 1070.51 505.869C1071.24 505.869 1071.87 506.133 1072.4 506.66C1072.93 507.187 1073.19 507.818 1073.19 508.554C1073.19 509.041 1073.07 509.489 1072.82 509.896C1072.58 510.304 1072.26 510.632 1071.85 510.881C1071.45 511.119 1071 511.239 1070.51 511.239ZM1088.34 511.418C1086.1 511.418 1084.18 510.806 1082.6 509.583C1081.02 508.35 1079.81 506.565 1078.98 504.229C1078.14 501.882 1077.72 499.048 1077.72 495.727C1077.72 492.426 1078.14 489.607 1078.98 487.271C1079.82 484.924 1081.04 483.134 1082.62 481.901C1084.21 480.658 1086.12 480.037 1088.34 480.037C1090.57 480.037 1092.48 480.658 1094.06 481.901C1095.65 483.134 1096.86 484.924 1097.7 487.271C1098.54 489.607 1098.96 492.426 1098.96 495.727C1098.96 499.048 1098.55 501.882 1097.71 504.229C1096.88 506.565 1095.67 508.35 1094.09 509.583C1092.5 510.806 1090.59 511.418 1088.34 511.418ZM1088.34 508.136C1090.57 508.136 1092.3 507.062 1093.53 504.915C1094.77 502.767 1095.38 499.705 1095.38 495.727C1095.38 493.082 1095.1 490.83 1094.53 488.971C1093.98 487.112 1093.17 485.695 1092.12 484.72C1091.07 483.746 1089.82 483.259 1088.34 483.259C1086.14 483.259 1084.41 484.347 1083.17 486.525C1081.93 488.692 1081.3 491.76 1081.3 495.727C1081.3 498.372 1081.58 500.619 1082.14 502.469C1082.7 504.318 1083.5 505.725 1084.54 506.69C1085.59 507.654 1086.86 508.136 1088.34 508.136ZM1104.76 511L1118.43 483.974V483.736H1102.68V480.455H1122.25V483.915L1108.64 511H1104.76Z" fill="#9D9D9D"/>
<path d="M901.901 453.455V484H898.202V457.332H898.023L890.565 462.284V458.526L898.202 453.455H901.901ZM911.506 484.239C910.77 484.239 910.138 483.975 909.612 483.448C909.085 482.921 908.821 482.29 908.821 481.554C908.821 480.818 909.085 480.187 909.612 479.66C910.138 479.133 910.77 478.869 911.506 478.869C912.241 478.869 912.873 479.133 913.4 479.66C913.927 480.187 914.19 480.818 914.19 481.554C914.19 482.041 914.066 482.489 913.817 482.896C913.579 483.304 913.256 483.632 912.848 483.881C912.45 484.119 912.003 484.239 911.506 484.239ZM929.344 484.418C927.097 484.418 925.183 483.806 923.602 482.583C922.021 481.35 920.813 479.565 919.977 477.229C919.142 474.882 918.724 472.048 918.724 468.727C918.724 465.426 919.142 462.607 919.977 460.271C920.822 457.924 922.036 456.134 923.616 454.901C925.207 453.658 927.116 453.037 929.344 453.037C931.571 453.037 933.475 453.658 935.056 454.901C936.647 456.134 937.86 457.924 938.695 460.271C939.54 462.607 939.963 465.426 939.963 468.727C939.963 472.048 939.545 474.882 938.71 477.229C937.875 479.565 936.667 481.35 935.086 482.583C933.505 483.806 931.591 484.418 929.344 484.418ZM929.344 481.136C931.571 481.136 933.301 480.062 934.534 477.915C935.767 475.767 936.384 472.705 936.384 468.727C936.384 466.082 936.1 463.83 935.533 461.971C934.977 460.112 934.171 458.695 933.117 457.72C932.073 456.746 930.815 456.259 929.344 456.259C927.136 456.259 925.411 457.347 924.168 459.525C922.925 461.692 922.304 464.76 922.304 468.727C922.304 471.372 922.582 473.619 923.139 475.469C923.696 477.318 924.496 478.725 925.54 479.69C926.594 480.654 927.862 481.136 929.344 481.136ZM955.415 484.418C953.366 484.418 951.557 484.055 949.986 483.329C948.425 482.593 947.207 481.584 946.332 480.301C945.457 479.009 945.024 477.537 945.034 475.886C945.024 474.594 945.278 473.401 945.795 472.307C946.312 471.203 947.018 470.283 947.913 469.548C948.817 468.802 949.827 468.33 950.94 468.131V467.952C949.479 467.574 948.315 466.754 947.45 465.491C946.585 464.218 946.158 462.771 946.168 461.151C946.158 459.599 946.55 458.212 947.346 456.989C948.141 455.766 949.235 454.802 950.627 454.096C952.029 453.39 953.625 453.037 955.415 453.037C957.185 453.037 958.766 453.39 960.158 454.096C961.55 454.802 962.643 455.766 963.439 456.989C964.244 458.212 964.652 459.599 964.662 461.151C964.652 462.771 964.21 464.218 963.335 465.491C962.469 466.754 961.321 467.574 959.889 467.952V468.131C960.993 468.33 961.987 468.802 962.872 469.548C963.757 470.283 964.463 471.203 964.99 472.307C965.517 473.401 965.786 474.594 965.795 475.886C965.786 477.537 965.338 479.009 964.453 480.301C963.578 481.584 962.36 482.593 960.799 483.329C959.248 484.055 957.453 484.418 955.415 484.418ZM955.415 481.136C956.797 481.136 957.99 480.913 958.994 480.465C959.999 480.018 960.774 479.386 961.321 478.571C961.868 477.756 962.146 476.801 962.156 475.707C962.146 474.554 961.848 473.535 961.261 472.65C960.675 471.765 959.874 471.069 958.86 470.562C957.856 470.055 956.707 469.801 955.415 469.801C954.112 469.801 952.949 470.055 951.925 470.562C950.911 471.069 950.11 471.765 949.523 472.65C948.947 473.535 948.663 474.554 948.673 475.707C948.663 476.801 948.927 477.756 949.464 478.571C950.011 479.386 950.791 480.018 951.805 480.465C952.82 480.913 954.023 481.136 955.415 481.136ZM955.415 466.639C956.509 466.639 957.478 466.42 958.323 465.983C959.178 465.545 959.849 464.934 960.337 464.148C960.824 463.363 961.072 462.443 961.082 461.389C961.072 460.355 960.829 459.455 960.352 458.69C959.874 457.914 959.213 457.317 958.368 456.9C957.523 456.472 956.538 456.259 955.415 456.259C954.271 456.259 953.272 456.472 952.417 456.9C951.562 457.317 950.901 457.914 950.433 458.69C949.966 459.455 949.737 460.355 949.747 461.389C949.737 462.443 949.971 463.363 950.448 464.148C950.935 464.934 951.607 465.545 952.462 465.983C953.317 466.42 954.301 466.639 955.415 466.639Z" fill="#9D9D9D"/>
<path d="M767.901 480.455V511H764.202V484.332H764.023L756.565 489.284V485.526L764.202 480.455H767.901ZM777.506 511.239C776.77 511.239 776.138 510.975 775.612 510.448C775.085 509.921 774.821 509.29 774.821 508.554C774.821 507.818 775.085 507.187 775.612 506.66C776.138 506.133 776.77 505.869 777.506 505.869C778.241 505.869 778.873 506.133 779.4 506.66C779.927 507.187 780.19 507.818 780.19 508.554C780.19 509.041 780.066 509.489 779.817 509.896C779.579 510.304 779.256 510.632 778.848 510.881C778.45 511.119 778.003 511.239 777.506 511.239ZM795.344 511.418C793.097 511.418 791.183 510.806 789.602 509.583C788.021 508.35 786.813 506.565 785.977 504.229C785.142 501.882 784.724 499.048 784.724 495.727C784.724 492.426 785.142 489.607 785.977 487.271C786.822 484.924 788.036 483.134 789.616 481.901C791.207 480.658 793.116 480.037 795.344 480.037C797.571 480.037 799.475 480.658 801.056 481.901C802.647 483.134 803.86 484.924 804.695 487.271C805.54 489.607 805.963 492.426 805.963 495.727C805.963 499.048 805.545 501.882 804.71 504.229C803.875 506.565 802.667 508.35 801.086 509.583C799.505 510.806 797.591 511.418 795.344 511.418ZM795.344 508.136C797.571 508.136 799.301 507.062 800.534 504.915C801.767 502.767 802.384 499.705 802.384 495.727C802.384 493.082 802.1 490.83 801.533 488.971C800.977 487.112 800.171 485.695 799.117 484.72C798.073 483.746 796.815 483.259 795.344 483.259C793.136 483.259 791.411 484.347 790.168 486.525C788.925 488.692 788.304 491.76 788.304 495.727C788.304 498.372 788.582 500.619 789.139 502.469C789.696 504.318 790.496 505.725 791.54 506.69C792.594 507.654 793.862 508.136 795.344 508.136ZM821.355 480.037C822.608 480.047 823.861 480.286 825.114 480.753C826.366 481.22 827.51 481.996 828.544 483.08C829.578 484.153 830.408 485.62 831.035 487.479C831.661 489.339 831.974 491.67 831.974 494.474C831.974 497.189 831.716 499.6 831.199 501.708C830.692 503.806 829.956 505.576 828.991 507.018C828.037 508.46 826.874 509.553 825.501 510.299C824.139 511.045 822.598 511.418 820.878 511.418C819.168 511.418 817.641 511.08 816.299 510.403C814.967 509.717 813.873 508.768 813.018 507.555C812.173 506.332 811.631 504.915 811.392 503.304H815.031C815.359 504.706 816.011 505.864 816.985 506.779C817.969 507.684 819.267 508.136 820.878 508.136C823.234 508.136 825.094 507.107 826.456 505.049C827.828 502.991 828.514 500.082 828.514 496.324H828.276C827.719 497.159 827.058 497.88 826.292 498.487C825.526 499.093 824.676 499.56 823.741 499.888C822.807 500.217 821.813 500.381 820.759 500.381C819.009 500.381 817.403 499.948 815.941 499.083C814.489 498.208 813.326 497.01 812.451 495.489C811.586 493.957 811.153 492.207 811.153 490.239C811.153 488.369 811.571 486.659 812.406 485.108C813.251 483.547 814.435 482.304 815.956 481.379C817.487 480.455 819.287 480.007 821.355 480.037ZM821.355 483.318C820.102 483.318 818.974 483.631 817.969 484.258C816.975 484.874 816.185 485.71 815.598 486.763C815.021 487.808 814.733 488.966 814.733 490.239C814.733 491.511 815.011 492.67 815.568 493.714C816.135 494.748 816.906 495.573 817.88 496.19C818.864 496.796 819.983 497.099 821.236 497.099C822.18 497.099 823.06 496.915 823.876 496.548C824.691 496.17 825.402 495.658 826.009 495.011C826.625 494.355 827.107 493.614 827.455 492.789C827.803 491.954 827.977 491.084 827.977 490.179C827.977 488.986 827.689 487.867 827.112 486.823C826.545 485.779 825.76 484.934 824.756 484.288C823.761 483.641 822.628 483.318 821.355 483.318Z" fill="#9D9D9D"/>
<path d="M519.901 480.455V511H516.202V484.332H516.023L508.565 489.284V485.526L516.202 480.455H519.901ZM529.506 511.239C528.77 511.239 528.138 510.975 527.612 510.448C527.085 509.921 526.821 509.29 526.821 508.554C526.821 507.818 527.085 507.187 527.612 506.66C528.138 506.133 528.77 505.869 529.506 505.869C530.241 505.869 530.873 506.133 531.4 506.66C531.927 507.187 532.19 507.818 532.19 508.554C532.19 509.041 532.066 509.489 531.817 509.896C531.579 510.304 531.256 510.632 530.848 510.881C530.45 511.119 530.003 511.239 529.506 511.239ZM545.535 480.455V511H541.836V484.332H541.657L534.2 489.284V485.526L541.836 480.455H545.535ZM564.283 511.418C562.036 511.418 560.122 510.806 558.541 509.583C556.96 508.35 555.752 506.565 554.917 504.229C554.081 501.882 553.664 499.048 553.664 495.727C553.664 492.426 554.081 489.607 554.917 487.271C555.762 484.924 556.975 483.134 558.556 481.901C560.147 480.658 562.056 480.037 564.283 480.037C566.51 480.037 568.415 480.658 569.996 481.901C571.586 483.134 572.8 484.924 573.635 487.271C574.48 489.607 574.903 492.426 574.903 495.727C574.903 499.048 574.485 501.882 573.65 504.229C572.814 506.565 571.606 508.35 570.025 509.583C568.444 510.806 566.53 511.418 564.283 511.418ZM564.283 508.136C566.51 508.136 568.241 507.062 569.474 504.915C570.706 502.767 571.323 499.705 571.323 495.727C571.323 493.082 571.04 490.83 570.473 488.971C569.916 487.112 569.111 485.695 568.057 484.72C567.013 483.746 565.755 483.259 564.283 483.259C562.076 483.259 560.351 484.347 559.108 486.525C557.865 488.692 557.243 491.76 557.243 495.727C557.243 498.372 557.522 500.619 558.079 502.469C558.635 504.318 559.436 505.725 560.48 506.69C561.534 507.654 562.802 508.136 564.283 508.136Z" fill="#9D9D9D"/>
<path d="M55.9006 197.455V228H52.2017V201.332H52.0227L44.5653 206.284V202.526L52.2017 197.455H55.9006ZM65.5057 228.239C64.7699 228.239 64.1385 227.975 63.6115 227.448C63.0845 226.921 62.821 226.29 62.821 225.554C62.821 224.818 63.0845 224.187 63.6115 223.66C64.1385 223.133 64.7699 222.869 65.5057 222.869C66.2415 222.869 66.8729 223.133 67.3999 223.66C67.9268 224.187 68.1903 224.818 68.1903 225.554C68.1903 226.041 68.0661 226.489 67.8175 226.896C67.5788 227.304 67.2557 227.632 66.848 227.881C66.4503 228.119 66.0028 228.239 65.5057 228.239ZM81.5353 197.455V228H77.8365V201.332H77.6575L70.2001 206.284V202.526L77.8365 197.455H81.5353ZM101.059 197.455V228H97.3599V201.332H97.1809L89.7235 206.284V202.526L97.3599 197.455H101.059Z" fill="#9D9D9D"/>
<path d="M55.9006 463.455V494H52.2017V467.332H52.0227L44.5653 472.284V468.526L52.2017 463.455H55.9006ZM65.5057 494.239C64.7699 494.239 64.1385 493.975 63.6115 493.448C63.0845 492.921 62.821 492.29 62.821 491.554C62.821 490.818 63.0845 490.187 63.6115 489.66C64.1385 489.133 64.7699 488.869 65.5057 488.869C66.2415 488.869 66.8729 489.133 67.3999 489.66C67.9268 490.187 68.1903 490.818 68.1903 491.554C68.1903 492.041 68.0661 492.489 67.8175 492.896C67.5788 493.304 67.2557 493.632 66.848 493.881C66.4503 494.119 66.0028 494.239 65.5057 494.239ZM81.5353 463.455V494H77.8365V467.332H77.6575L70.2001 472.284V468.526L77.8365 463.455H81.5353ZM90.3201 494V491.315L100.403 480.278C101.586 478.986 102.56 477.862 103.326 476.908C104.091 475.943 104.658 475.038 105.026 474.193C105.404 473.338 105.593 472.443 105.593 471.509C105.593 470.435 105.334 469.505 104.817 468.719C104.31 467.934 103.614 467.327 102.729 466.9C101.844 466.472 100.85 466.259 99.7463 466.259C98.573 466.259 97.5488 466.502 96.6738 466.989C95.8088 467.467 95.1376 468.138 94.6603 469.003C94.193 469.868 93.9593 470.882 93.9593 472.045H90.4395C90.4395 470.256 90.8521 468.685 91.6774 467.332C92.5027 465.98 93.6262 464.926 95.0481 464.17C96.4799 463.415 98.0858 463.037 99.8656 463.037C101.655 463.037 103.241 463.415 104.623 464.17C106.006 464.926 107.089 465.945 107.875 467.228C108.66 468.511 109.053 469.938 109.053 471.509C109.053 472.632 108.849 473.731 108.442 474.805C108.044 475.869 107.348 477.057 106.354 478.369C105.369 479.672 104.002 481.263 102.252 483.142L95.3912 490.48V490.719H109.59V494H90.3201Z" fill="#9D9D9D"/>
<path d="M55.9006 778.455V809H52.2017V782.332H52.0227L44.5653 787.284V783.526L52.2017 778.455H55.9006ZM65.5057 809.239C64.7699 809.239 64.1385 808.975 63.6115 808.448C63.0845 807.921 62.821 807.29 62.821 806.554C62.821 805.818 63.0845 805.187 63.6115 804.66C64.1385 804.133 64.7699 803.869 65.5057 803.869C66.2415 803.869 66.8729 804.133 67.3999 804.66C67.9268 805.187 68.1903 805.818 68.1903 806.554C68.1903 807.041 68.0661 807.489 67.8175 807.896C67.5788 808.304 67.2557 808.632 66.848 808.881C66.4503 809.119 66.0028 809.239 65.5057 809.239ZM81.5353 778.455V809H77.8365V782.332H77.6575L70.2001 787.284V783.526L77.8365 778.455H81.5353ZM100.641 809.418C98.6724 809.418 96.9174 809.08 95.3762 808.403C93.845 807.727 92.627 806.788 91.7221 805.585C90.8272 804.371 90.34 802.964 90.2605 801.364H94.019C94.0985 802.348 94.4366 803.198 95.0332 803.914C95.6298 804.62 96.4103 805.167 97.3748 805.555C98.3393 805.942 99.4082 806.136 100.581 806.136C101.894 806.136 103.057 805.908 104.072 805.45C105.086 804.993 105.881 804.357 106.458 803.541C107.035 802.726 107.323 801.781 107.323 800.707C107.323 799.584 107.045 798.594 106.488 797.739C105.931 796.874 105.116 796.198 104.042 795.711C102.968 795.224 101.655 794.98 100.104 794.98H97.6582V791.699H100.104C101.317 791.699 102.381 791.48 103.296 791.043C104.221 790.605 104.942 789.989 105.459 789.193C105.986 788.398 106.249 787.463 106.249 786.389C106.249 785.355 106.02 784.455 105.563 783.69C105.106 782.924 104.459 782.327 103.624 781.9C102.799 781.472 101.824 781.259 100.701 781.259C99.6468 781.259 98.6525 781.452 97.7179 781.84C96.7931 782.218 96.0375 782.77 95.4508 783.496C94.8642 784.212 94.546 785.077 94.4963 786.091H90.9167C90.9764 784.49 91.4586 783.088 92.3635 781.885C93.2683 780.672 94.4515 779.727 95.9132 779.051C97.3848 778.375 99.0005 778.037 100.76 778.037C102.65 778.037 104.27 778.42 105.623 779.185C106.975 779.941 108.014 780.94 108.74 782.183C109.466 783.426 109.829 784.768 109.829 786.21C109.829 787.93 109.376 789.397 108.471 790.61C107.577 791.823 106.358 792.663 104.817 793.131V793.369C106.746 793.687 108.253 794.508 109.336 795.83C110.42 797.143 110.962 798.768 110.962 800.707C110.962 802.368 110.51 803.859 109.605 805.182C108.71 806.494 107.487 807.528 105.936 808.284C104.385 809.04 102.62 809.418 100.641 809.418Z" fill="#9D9D9D"/>
<path d="M55.9006 941.455V972H52.2017V945.332H52.0227L44.5653 950.284V946.526L52.2017 941.455H55.9006ZM65.5057 972.239C64.7699 972.239 64.1385 971.975 63.6115 971.448C63.0845 970.921 62.821 970.29 62.821 969.554C62.821 968.818 63.0845 968.187 63.6115 967.66C64.1385 967.133 64.7699 966.869 65.5057 966.869C66.2415 966.869 66.8729 967.133 67.3999 967.66C67.9268 968.187 68.1903 968.818 68.1903 969.554C68.1903 970.041 68.0661 970.489 67.8175 970.896C67.5788 971.304 67.2557 971.632 66.848 971.881C66.4503 972.119 66.0028 972.239 65.5057 972.239ZM81.5353 941.455V972H77.8365V945.332H77.6575L70.2001 950.284V946.526L77.8365 941.455H81.5353ZM89.6042 965.736V962.693L103.028 941.455H105.235V946.168H103.743L93.6014 962.216V962.455H111.678V965.736H89.6042ZM103.982 972V964.811V963.394V941.455H107.502V972H103.982Z" fill="#9D9D9D"/>
<path d="M55.9006 1094.45V1125H52.2017V1098.33H52.0227L44.5653 1103.28V1099.53L52.2017 1094.45H55.9006ZM65.5057 1125.24C64.7699 1125.24 64.1385 1124.98 63.6115 1124.45C63.0845 1123.92 62.821 1123.29 62.821 1122.55C62.821 1121.82 63.0845 1121.19 63.6115 1120.66C64.1385 1120.13 64.7699 1119.87 65.5057 1119.87C66.2415 1119.87 66.8729 1120.13 67.3999 1120.66C67.9268 1121.19 68.1903 1121.82 68.1903 1122.55C68.1903 1123.04 68.0661 1123.49 67.8175 1123.9C67.5788 1124.3 67.2557 1124.63 66.848 1124.88C66.4503 1125.12 66.0028 1125.24 65.5057 1125.24ZM81.5353 1094.45V1125H77.8365V1098.33H77.6575L70.2001 1103.28V1099.53L77.8365 1094.45H81.5353ZM99.8656 1125.42C98.1156 1125.42 96.5396 1125.07 95.1376 1124.37C93.7356 1123.68 92.612 1122.72 91.7669 1121.51C90.9217 1120.3 90.4593 1118.91 90.3798 1117.36H93.9593C94.0985 1118.75 94.725 1119.89 95.8386 1120.79C96.9622 1121.69 98.3045 1122.14 99.8656 1122.14C101.118 1122.14 102.232 1121.84 103.206 1121.26C104.191 1120.67 104.961 1119.86 105.518 1118.84C106.085 1117.81 106.368 1116.64 106.368 1115.34C106.368 1114 106.075 1112.81 105.488 1111.77C104.912 1110.72 104.116 1109.89 103.102 1109.28C102.088 1108.67 100.93 1108.37 99.627 1108.36C98.6923 1108.35 97.7328 1108.49 96.7484 1108.79C95.764 1109.08 94.9537 1109.45 94.3173 1109.91L90.8571 1109.49L92.7065 1094.45H108.576V1097.74H95.8088L94.7349 1106.74H94.9139C95.5403 1106.25 96.3258 1105.83 97.2704 1105.51C98.215 1105.18 99.1994 1105.01 100.224 1105.01C102.093 1105.01 103.758 1105.46 105.22 1106.36C106.692 1107.24 107.845 1108.45 108.68 1110C109.525 1111.54 109.948 1113.3 109.948 1115.28C109.948 1117.22 109.51 1118.96 108.635 1120.5C107.77 1122.02 106.577 1123.22 105.056 1124.11C103.535 1124.98 101.805 1125.42 99.8656 1125.42Z" fill="#9D9D9D"/>
<path d="M55.9006 1217.45V1248H52.2017V1221.33H52.0227L44.5653 1226.28V1222.53L52.2017 1217.45H55.9006ZM65.5057 1248.24C64.7699 1248.24 64.1385 1247.98 63.6115 1247.45C63.0845 1246.92 62.821 1246.29 62.821 1245.55C62.821 1244.82 63.0845 1244.19 63.6115 1243.66C64.1385 1243.13 64.7699 1242.87 65.5057 1242.87C66.2415 1242.87 66.8729 1243.13 67.3999 1243.66C67.9268 1244.19 68.1903 1244.82 68.1903 1245.55C68.1903 1246.04 68.0661 1246.49 67.8175 1246.9C67.5788 1247.3 67.2557 1247.63 66.848 1247.88C66.4503 1248.12 66.0028 1248.24 65.5057 1248.24ZM81.5353 1217.45V1248H77.8365V1221.33H77.6575L70.2001 1226.28V1222.53L77.8365 1217.45H81.5353ZM100.462 1248.42C99.2093 1248.4 97.9565 1248.16 96.7037 1247.7C95.4508 1247.24 94.3074 1246.47 93.2733 1245.39C92.2392 1244.3 91.4089 1242.82 90.7825 1240.96C90.1561 1239.09 89.8429 1236.74 89.8429 1233.92C89.8429 1231.22 90.0964 1228.82 90.6035 1226.73C91.1106 1224.63 91.8464 1222.87 92.8109 1221.44C93.7754 1220 94.9387 1218.9 96.301 1218.16C97.6731 1217.41 99.2193 1217.04 100.939 1217.04C102.65 1217.04 104.171 1217.38 105.503 1218.07C106.846 1218.74 107.939 1219.69 108.785 1220.9C109.63 1222.11 110.177 1223.51 110.425 1225.09H106.786C106.448 1223.72 105.792 1222.58 104.817 1221.68C103.843 1220.77 102.55 1220.32 100.939 1220.32C98.573 1220.32 96.7086 1221.35 95.3464 1223.41C93.9941 1225.46 93.313 1228.35 93.3031 1232.07H93.5417C94.0985 1231.23 94.7598 1230.5 95.5254 1229.91C96.301 1229.3 97.1561 1228.83 98.0907 1228.51C99.0254 1228.18 100.015 1228.01 101.059 1228.01C102.809 1228.01 104.41 1228.45 105.861 1229.33C107.313 1230.19 108.476 1231.39 109.351 1232.92C110.226 1234.44 110.664 1236.19 110.664 1238.16C110.664 1240.05 110.241 1241.78 109.396 1243.35C108.551 1244.91 107.363 1246.15 105.831 1247.08C104.31 1247.99 102.52 1248.44 100.462 1248.42ZM100.462 1245.14C101.715 1245.14 102.839 1244.82 103.833 1244.2C104.837 1243.57 105.628 1242.73 106.204 1241.68C106.791 1240.62 107.084 1239.45 107.084 1238.16C107.084 1236.89 106.801 1235.75 106.234 1234.71C105.677 1233.67 104.907 1232.84 103.922 1232.22C102.948 1231.6 101.834 1231.3 100.581 1231.3C99.6369 1231.3 98.7569 1231.48 97.9416 1231.86C97.1262 1232.23 96.4103 1232.74 95.7939 1233.38C95.1873 1234.03 94.7101 1234.77 94.362 1235.61C94.014 1236.43 93.84 1237.3 93.84 1238.22C93.84 1239.43 94.1234 1240.56 94.6902 1241.62C95.2669 1242.67 96.0524 1243.52 97.0467 1244.17C98.051 1244.81 99.1895 1245.14 100.462 1245.14Z" fill="#9D9D9D"/>
<path d="M399.901 773.455V804H396.202V777.332H396.023L388.565 782.284V778.526L396.202 773.455H399.901ZM409.506 804.239C408.77 804.239 408.138 803.975 407.612 803.448C407.085 802.921 406.821 802.29 406.821 801.554C406.821 800.818 407.085 800.187 407.612 799.66C408.138 799.133 408.77 798.869 409.506 798.869C410.241 798.869 410.873 799.133 411.4 799.66C411.927 800.187 412.19 800.818 412.19 801.554C412.19 802.041 412.066 802.489 411.817 802.896C411.579 803.304 411.256 803.632 410.848 803.881C410.45 804.119 410.003 804.239 409.506 804.239ZM425.535 773.455V804H421.836V777.332H421.657L414.2 782.284V778.526L421.836 773.455H425.535ZM435.275 804L448.937 776.974V776.736H433.187V773.455H452.755V776.915L439.153 804H435.275Z" fill="#9D9D9D"/>
<path d="M647.901 773.455V804H644.202V777.332H644.023L636.565 782.284V778.526L644.202 773.455H647.901ZM657.506 804.239C656.77 804.239 656.138 803.975 655.612 803.448C655.085 802.921 654.821 802.29 654.821 801.554C654.821 800.818 655.085 800.187 655.612 799.66C656.138 799.133 656.77 798.869 657.506 798.869C658.241 798.869 658.873 799.133 659.4 799.66C659.927 800.187 660.19 800.818 660.19 801.554C660.19 802.041 660.066 802.489 659.817 802.896C659.579 803.304 659.256 803.632 658.848 803.881C658.45 804.119 658.003 804.239 657.506 804.239ZM673.535 773.455V804H669.836V777.332H669.657L662.2 782.284V778.526L669.836 773.455H673.535ZM692.104 804.418C690.056 804.418 688.246 804.055 686.675 803.329C685.114 802.593 683.896 801.584 683.021 800.301C682.146 799.009 681.714 797.537 681.724 795.886C681.714 794.594 681.967 793.401 682.484 792.307C683.001 791.203 683.707 790.283 684.602 789.548C685.507 788.802 686.516 788.33 687.63 788.131V787.952C686.168 787.574 685.005 786.754 684.14 785.491C683.275 784.218 682.847 782.771 682.857 781.151C682.847 779.599 683.24 778.212 684.035 776.989C684.831 775.766 685.925 774.802 687.317 774.096C688.719 773.39 690.314 773.037 692.104 773.037C693.874 773.037 695.455 773.39 696.847 774.096C698.239 774.802 699.333 775.766 700.128 776.989C700.934 778.212 701.341 779.599 701.351 781.151C701.341 782.771 700.899 784.218 700.024 785.491C699.159 786.754 698.01 787.574 696.579 787.952V788.131C697.682 788.33 698.677 788.802 699.562 789.548C700.447 790.283 701.153 791.203 701.68 792.307C702.206 793.401 702.475 794.594 702.485 795.886C702.475 797.537 702.028 799.009 701.143 800.301C700.268 801.584 699.05 802.593 697.488 803.329C695.937 804.055 694.143 804.418 692.104 804.418ZM692.104 801.136C693.486 801.136 694.68 800.913 695.684 800.465C696.688 800.018 697.464 799.386 698.01 798.571C698.557 797.756 698.836 796.801 698.846 795.707C698.836 794.554 698.537 793.535 697.951 792.65C697.364 791.765 696.564 791.069 695.55 790.562C694.545 790.055 693.397 789.801 692.104 789.801C690.802 789.801 689.638 790.055 688.614 790.562C687.6 791.069 686.8 791.765 686.213 792.65C685.636 793.535 685.353 794.554 685.363 795.707C685.353 796.801 685.616 797.756 686.153 798.571C686.7 799.386 687.481 800.018 688.495 800.465C689.509 800.913 690.712 801.136 692.104 801.136ZM692.104 786.639C693.198 786.639 694.167 786.42 695.013 785.983C695.868 785.545 696.539 784.934 697.026 784.148C697.513 783.363 697.762 782.443 697.772 781.389C697.762 780.355 697.518 779.455 697.041 778.69C696.564 777.914 695.903 777.317 695.057 776.9C694.212 776.472 693.228 776.259 692.104 776.259C690.961 776.259 689.961 776.472 689.106 776.9C688.251 777.317 687.59 777.914 687.123 778.69C686.655 779.455 686.427 780.355 686.437 781.389C686.427 782.443 686.66 783.363 687.138 784.148C687.625 784.934 688.296 785.545 689.151 785.983C690.006 786.42 690.991 786.639 692.104 786.639Z" fill="#9D9D9D"/>
<path d="M891.901 773.455V804H888.202V777.332H888.023L880.565 782.284V778.526L888.202 773.455H891.901ZM901.506 804.239C900.77 804.239 900.138 803.975 899.612 803.448C899.085 802.921 898.821 802.29 898.821 801.554C898.821 800.818 899.085 800.187 899.612 799.66C900.138 799.133 900.77 798.869 901.506 798.869C902.241 798.869 902.873 799.133 903.4 799.66C903.927 800.187 904.19 800.818 904.19 801.554C904.19 802.041 904.066 802.489 903.817 802.896C903.579 803.304 903.256 803.632 902.848 803.881C902.45 804.119 902.003 804.239 901.506 804.239ZM917.535 773.455V804H913.836V777.332H913.657L906.2 782.284V778.526L913.836 773.455H917.535ZM936.045 773.037C937.297 773.047 938.55 773.286 939.803 773.753C941.056 774.22 942.199 774.996 943.233 776.08C944.268 777.153 945.098 778.62 945.724 780.479C946.351 782.339 946.664 784.67 946.664 787.474C946.664 790.189 946.405 792.6 945.888 794.708C945.381 796.806 944.645 798.576 943.681 800.018C942.726 801.46 941.563 802.553 940.191 803.299C938.829 804.045 937.287 804.418 935.567 804.418C933.857 804.418 932.331 804.08 930.988 803.403C929.656 802.717 928.562 801.768 927.707 800.555C926.862 799.332 926.32 797.915 926.081 796.304H929.721C930.049 797.706 930.7 798.864 931.675 799.779C932.659 800.684 933.956 801.136 935.567 801.136C937.924 801.136 939.783 800.107 941.145 798.049C942.518 795.991 943.204 793.082 943.204 789.324H942.965C942.408 790.159 941.747 790.88 940.981 791.487C940.216 792.093 939.366 792.56 938.431 792.888C937.496 793.217 936.502 793.381 935.448 793.381C933.698 793.381 932.092 792.948 930.631 792.083C929.179 791.208 928.015 790.01 927.14 788.489C926.275 786.957 925.843 785.207 925.843 783.239C925.843 781.369 926.26 779.659 927.096 778.108C927.941 776.547 929.124 775.304 930.645 774.379C932.177 773.455 933.976 773.007 936.045 773.037ZM936.045 776.318C934.792 776.318 933.663 776.631 932.659 777.258C931.665 777.874 930.874 778.71 930.287 779.763C929.711 780.808 929.422 781.966 929.422 783.239C929.422 784.511 929.701 785.67 930.258 786.714C930.824 787.748 931.595 788.573 932.569 789.19C933.554 789.796 934.672 790.099 935.925 790.099C936.87 790.099 937.75 789.915 938.565 789.548C939.381 789.17 940.091 788.658 940.698 788.011C941.314 787.355 941.797 786.614 942.145 785.789C942.493 784.954 942.667 784.084 942.667 783.179C942.667 781.986 942.378 780.867 941.802 779.823C941.235 778.779 940.449 777.934 939.445 777.288C938.451 776.641 937.317 776.318 936.045 776.318Z" fill="#9D9D9D"/>
<path d="M1460.9 715.455V746H1457.2V719.332H1457.02L1449.57 724.284V720.526L1457.2 715.455H1460.9ZM1470.51 746.239C1469.77 746.239 1469.14 745.975 1468.61 745.448C1468.08 744.921 1467.82 744.29 1467.82 743.554C1467.82 742.818 1468.08 742.187 1468.61 741.66C1469.14 741.133 1469.77 740.869 1470.51 740.869C1471.24 740.869 1471.87 741.133 1472.4 741.66C1472.93 742.187 1473.19 742.818 1473.19 743.554C1473.19 744.041 1473.07 744.489 1472.82 744.896C1472.58 745.304 1472.26 745.632 1471.85 745.881C1471.45 746.119 1471 746.239 1470.51 746.239ZM1479.45 746V743.315L1489.53 732.278C1490.71 730.986 1491.69 729.862 1492.45 728.908C1493.22 727.943 1493.79 727.038 1494.15 726.193C1494.53 725.338 1494.72 724.443 1494.72 723.509C1494.72 722.435 1494.46 721.505 1493.94 720.719C1493.44 719.934 1492.74 719.327 1491.86 718.9C1490.97 718.472 1489.98 718.259 1488.87 718.259C1487.7 718.259 1486.68 718.502 1485.8 718.989C1484.94 719.467 1484.26 720.138 1483.79 721.003C1483.32 721.868 1483.09 722.882 1483.09 724.045H1479.57C1479.57 722.256 1479.98 720.685 1480.8 719.332C1481.63 717.98 1482.75 716.926 1484.18 716.17C1485.61 715.415 1487.21 715.037 1488.99 715.037C1490.78 715.037 1492.37 715.415 1493.75 716.17C1495.13 716.926 1496.22 717.945 1497 719.228C1497.79 720.511 1498.18 721.938 1498.18 723.509C1498.18 724.632 1497.98 725.731 1497.57 726.805C1497.17 727.869 1496.47 729.057 1495.48 730.369C1494.5 731.672 1493.13 733.263 1491.38 735.142L1484.52 742.48V742.719H1498.72V746H1479.45ZM1514.84 746.418C1512.59 746.418 1510.68 745.806 1509.1 744.583C1507.52 743.35 1506.31 741.565 1505.47 739.229C1504.64 736.882 1504.22 734.048 1504.22 730.727C1504.22 727.426 1504.64 724.607 1505.47 722.271C1506.32 719.924 1507.53 718.134 1509.11 716.901C1510.7 715.658 1512.61 715.037 1514.84 715.037C1517.07 715.037 1518.97 715.658 1520.55 716.901C1522.14 718.134 1523.36 719.924 1524.19 722.271C1525.04 724.607 1525.46 727.426 1525.46 730.727C1525.46 734.048 1525.04 736.882 1524.21 739.229C1523.37 741.565 1522.16 743.35 1520.58 744.583C1519 745.806 1517.09 746.418 1514.84 746.418ZM1514.84 743.136C1517.07 743.136 1518.8 742.062 1520.03 739.915C1521.26 737.767 1521.88 734.705 1521.88 730.727C1521.88 728.082 1521.6 725.83 1521.03 723.971C1520.47 722.112 1519.67 720.695 1518.61 719.72C1517.57 718.746 1516.31 718.259 1514.84 718.259C1512.63 718.259 1510.91 719.347 1509.66 721.525C1508.42 723.692 1507.8 726.76 1507.8 730.727C1507.8 733.372 1508.08 735.619 1508.64 737.469C1509.19 739.318 1509.99 740.725 1511.04 741.69C1512.09 742.654 1513.36 743.136 1514.84 743.136Z" fill="#9D9D9D"/>
<path d="M1582.9 773.455V804H1579.2V777.332H1579.02L1571.57 782.284V778.526L1579.2 773.455H1582.9ZM1592.51 804.239C1591.77 804.239 1591.14 803.975 1590.61 803.448C1590.08 802.921 1589.82 802.29 1589.82 801.554C1589.82 800.818 1590.08 800.187 1590.61 799.66C1591.14 799.133 1591.77 798.869 1592.51 798.869C1593.24 798.869 1593.87 799.133 1594.4 799.66C1594.93 800.187 1595.19 800.818 1595.19 801.554C1595.19 802.041 1595.07 802.489 1594.82 802.896C1594.58 803.304 1594.26 803.632 1593.85 803.881C1593.45 804.119 1593 804.239 1592.51 804.239ZM1601.45 804V801.315L1611.53 790.278C1612.71 788.986 1613.69 787.862 1614.45 786.908C1615.22 785.943 1615.79 785.038 1616.15 784.193C1616.53 783.338 1616.72 782.443 1616.72 781.509C1616.72 780.435 1616.46 779.505 1615.94 778.719C1615.44 777.934 1614.74 777.327 1613.86 776.9C1612.97 776.472 1611.98 776.259 1610.87 776.259C1609.7 776.259 1608.68 776.502 1607.8 776.989C1606.94 777.467 1606.26 778.138 1605.79 779.003C1605.32 779.868 1605.09 780.882 1605.09 782.045H1601.57C1601.57 780.256 1601.98 778.685 1602.8 777.332C1603.63 775.98 1604.75 774.926 1606.18 774.17C1607.61 773.415 1609.21 773.037 1610.99 773.037C1612.78 773.037 1614.37 773.415 1615.75 774.17C1617.13 774.926 1618.22 775.945 1619 777.228C1619.79 778.511 1620.18 779.938 1620.18 781.509C1620.18 782.632 1619.98 783.731 1619.57 784.805C1619.17 785.869 1618.47 787.057 1617.48 788.369C1616.5 789.672 1615.13 791.263 1613.38 793.142L1606.52 800.48V800.719H1620.72V804H1601.45ZM1637.62 773.455V804H1633.92V777.332H1633.74L1626.28 782.284V778.526L1633.92 773.455H1637.62Z" fill="#9D9D9D"/>
<path d="M1833.9 773.455V804H1830.2V777.332H1830.02L1822.57 782.284V778.526L1830.2 773.455H1833.9ZM1843.51 804.239C1842.77 804.239 1842.14 803.975 1841.61 803.448C1841.08 802.921 1840.82 802.29 1840.82 801.554C1840.82 800.818 1841.08 800.187 1841.61 799.66C1842.14 799.133 1842.77 798.869 1843.51 798.869C1844.24 798.869 1844.87 799.133 1845.4 799.66C1845.93 800.187 1846.19 800.818 1846.19 801.554C1846.19 802.041 1846.07 802.489 1845.82 802.896C1845.58 803.304 1845.26 803.632 1844.85 803.881C1844.45 804.119 1844 804.239 1843.51 804.239ZM1852.45 804V801.315L1862.53 790.278C1863.71 788.986 1864.69 787.862 1865.45 786.908C1866.22 785.943 1866.79 785.038 1867.15 784.193C1867.53 783.338 1867.72 782.443 1867.72 781.509C1867.72 780.435 1867.46 779.505 1866.94 778.719C1866.44 777.934 1865.74 777.327 1864.86 776.9C1863.97 776.472 1862.98 776.259 1861.87 776.259C1860.7 776.259 1859.68 776.502 1858.8 776.989C1857.94 777.467 1857.26 778.138 1856.79 779.003C1856.32 779.868 1856.09 780.882 1856.09 782.045H1852.57C1852.57 780.256 1852.98 778.685 1853.8 777.332C1854.63 775.98 1855.75 774.926 1857.18 774.17C1858.61 773.415 1860.21 773.037 1861.99 773.037C1863.78 773.037 1865.37 773.415 1866.75 774.17C1868.13 774.926 1869.22 775.945 1870 777.228C1870.79 778.511 1871.18 779.938 1871.18 781.509C1871.18 782.632 1870.98 783.731 1870.57 784.805C1870.17 785.869 1869.47 787.057 1868.48 788.369C1867.5 789.672 1866.13 791.263 1864.38 793.142L1857.52 800.48V800.719H1871.72V804H1852.45ZM1877.88 804V801.315L1887.96 790.278C1889.14 788.986 1890.12 787.862 1890.88 786.908C1891.65 785.943 1892.21 785.038 1892.58 784.193C1892.96 783.338 1893.15 782.443 1893.15 781.509C1893.15 780.435 1892.89 779.505 1892.37 778.719C1891.87 777.934 1891.17 777.327 1890.29 776.9C1889.4 776.472 1888.41 776.259 1887.3 776.259C1886.13 776.259 1885.11 776.502 1884.23 776.989C1883.37 777.467 1882.69 778.138 1882.22 779.003C1881.75 779.868 1881.52 780.882 1881.52 782.045H1878C1878 780.256 1878.41 778.685 1879.23 777.332C1880.06 775.98 1881.18 774.926 1882.6 774.17C1884.04 773.415 1885.64 773.037 1887.42 773.037C1889.21 773.037 1890.8 773.415 1892.18 774.17C1893.56 774.926 1894.65 775.945 1895.43 777.228C1896.22 778.511 1896.61 779.938 1896.61 781.509C1896.61 782.632 1896.41 783.731 1896 784.805C1895.6 785.869 1894.9 787.057 1893.91 788.369C1892.93 789.672 1891.56 791.263 1889.81 793.142L1882.95 800.48V800.719H1897.15V804H1877.88Z" fill="#9D9D9D"/>
<path d="M2149.9 773.455V804H2146.2V777.332H2146.02L2138.57 782.284V778.526L2146.2 773.455H2149.9ZM2159.51 804.239C2158.77 804.239 2158.14 803.975 2157.61 803.448C2157.08 802.921 2156.82 802.29 2156.82 801.554C2156.82 800.818 2157.08 800.187 2157.61 799.66C2158.14 799.133 2158.77 798.869 2159.51 798.869C2160.24 798.869 2160.87 799.133 2161.4 799.66C2161.93 800.187 2162.19 800.818 2162.19 801.554C2162.19 802.041 2162.07 802.489 2161.82 802.896C2161.58 803.304 2161.26 803.632 2160.85 803.881C2160.45 804.119 2160 804.239 2159.51 804.239ZM2168.45 804V801.315L2178.53 790.278C2179.71 788.986 2180.69 787.862 2181.45 786.908C2182.22 785.943 2182.79 785.038 2183.15 784.193C2183.53 783.338 2183.72 782.443 2183.72 781.509C2183.72 780.435 2183.46 779.505 2182.94 778.719C2182.44 777.934 2181.74 777.327 2180.86 776.9C2179.97 776.472 2178.98 776.259 2177.87 776.259C2176.7 776.259 2175.68 776.502 2174.8 776.989C2173.94 777.467 2173.26 778.138 2172.79 779.003C2172.32 779.868 2172.09 780.882 2172.09 782.045H2168.57C2168.57 780.256 2168.98 778.685 2169.8 777.332C2170.63 775.98 2171.75 774.926 2173.18 774.17C2174.61 773.415 2176.21 773.037 2177.99 773.037C2179.78 773.037 2181.37 773.415 2182.75 774.17C2184.13 774.926 2185.22 775.945 2186 777.228C2186.79 778.511 2187.18 779.938 2187.18 781.509C2187.18 782.632 2186.98 783.731 2186.57 784.805C2186.17 785.869 2185.47 787.057 2184.48 788.369C2183.5 789.672 2182.13 791.263 2180.38 793.142L2173.52 800.48V800.719H2187.72V804H2168.45ZM2204.2 804.418C2202.23 804.418 2200.47 804.08 2198.93 803.403C2197.4 802.727 2196.18 801.788 2195.28 800.585C2194.38 799.371 2193.9 797.964 2193.82 796.364H2197.58C2197.66 797.348 2197.99 798.198 2198.59 798.914C2199.19 799.62 2199.97 800.167 2200.93 800.555C2201.9 800.942 2202.96 801.136 2204.14 801.136C2205.45 801.136 2206.61 800.908 2207.63 800.45C2208.64 799.993 2209.44 799.357 2210.01 798.541C2210.59 797.726 2210.88 796.781 2210.88 795.707C2210.88 794.584 2210.6 793.594 2210.04 792.739C2209.49 791.874 2208.67 791.198 2207.6 790.711C2206.52 790.224 2205.21 789.98 2203.66 789.98H2201.21V786.699H2203.66C2204.87 786.699 2205.94 786.48 2206.85 786.043C2207.78 785.605 2208.5 784.989 2209.02 784.193C2209.54 783.398 2209.81 782.463 2209.81 781.389C2209.81 780.355 2209.58 779.455 2209.12 778.69C2208.66 777.924 2208.02 777.327 2207.18 776.9C2206.36 776.472 2205.38 776.259 2204.26 776.259C2203.2 776.259 2202.21 776.452 2201.27 776.84C2200.35 777.218 2199.59 777.77 2199.01 778.496C2198.42 779.212 2198.1 780.077 2198.05 781.091H2194.47C2194.53 779.49 2195.02 778.088 2195.92 776.885C2196.82 775.672 2198.01 774.727 2199.47 774.051C2200.94 773.375 2202.56 773.037 2204.32 773.037C2206.21 773.037 2207.83 773.42 2209.18 774.185C2210.53 774.941 2211.57 775.94 2212.3 777.183C2213.02 778.426 2213.39 779.768 2213.39 781.21C2213.39 782.93 2212.93 784.397 2212.03 785.61C2211.13 786.823 2209.92 787.663 2208.37 788.131V788.369C2210.3 788.687 2211.81 789.508 2212.89 790.83C2213.98 792.143 2214.52 793.768 2214.52 795.707C2214.52 797.368 2214.07 798.859 2213.16 800.182C2212.27 801.494 2211.04 802.528 2209.49 803.284C2207.94 804.04 2206.18 804.418 2204.2 804.418Z" fill="#9D9D9D"/>
<path d="M2329.9 773.455V804H2326.2V777.332H2326.02L2318.57 782.284V778.526L2326.2 773.455H2329.9ZM2339.51 804.239C2338.77 804.239 2338.14 803.975 2337.61 803.448C2337.08 802.921 2336.82 802.29 2336.82 801.554C2336.82 800.818 2337.08 800.187 2337.61 799.66C2338.14 799.133 2338.77 798.869 2339.51 798.869C2340.24 798.869 2340.87 799.133 2341.4 799.66C2341.93 800.187 2342.19 800.818 2342.19 801.554C2342.19 802.041 2342.07 802.489 2341.82 802.896C2341.58 803.304 2341.26 803.632 2340.85 803.881C2340.45 804.119 2340 804.239 2339.51 804.239ZM2348.45 804V801.315L2358.53 790.278C2359.71 788.986 2360.69 787.862 2361.45 786.908C2362.22 785.943 2362.79 785.038 2363.15 784.193C2363.53 783.338 2363.72 782.443 2363.72 781.509C2363.72 780.435 2363.46 779.505 2362.94 778.719C2362.44 777.934 2361.74 777.327 2360.86 776.9C2359.97 776.472 2358.98 776.259 2357.87 776.259C2356.7 776.259 2355.68 776.502 2354.8 776.989C2353.94 777.467 2353.26 778.138 2352.79 779.003C2352.32 779.868 2352.09 780.882 2352.09 782.045H2348.57C2348.57 780.256 2348.98 778.685 2349.8 777.332C2350.63 775.98 2351.75 774.926 2353.18 774.17C2354.61 773.415 2356.21 773.037 2357.99 773.037C2359.78 773.037 2361.37 773.415 2362.75 774.17C2364.13 774.926 2365.22 775.945 2366 777.228C2366.79 778.511 2367.18 779.938 2367.18 781.509C2367.18 782.632 2366.98 783.731 2366.57 784.805C2366.17 785.869 2365.47 787.057 2364.48 788.369C2363.5 789.672 2362.13 791.263 2360.38 793.142L2353.52 800.48V800.719H2367.72V804H2348.45ZM2372.5 797.736V794.693L2385.93 773.455H2388.14V778.168H2386.64L2376.5 794.216V794.455H2394.58V797.736H2372.5ZM2386.88 804V796.811V795.394V773.455H2390.4V804H2386.88Z" fill="#9D9D9D"/>
<path d="M2451.9 805.455V836H2448.2V809.332H2448.02L2440.57 814.284V810.526L2448.2 805.455H2451.9ZM2461.51 836.239C2460.77 836.239 2460.14 835.975 2459.61 835.448C2459.08 834.921 2458.82 834.29 2458.82 833.554C2458.82 832.818 2459.08 832.187 2459.61 831.66C2460.14 831.133 2460.77 830.869 2461.51 830.869C2462.24 830.869 2462.87 831.133 2463.4 831.66C2463.93 832.187 2464.19 832.818 2464.19 833.554C2464.19 834.041 2464.07 834.489 2463.82 834.896C2463.58 835.304 2463.26 835.632 2462.85 835.881C2462.45 836.119 2462 836.239 2461.51 836.239ZM2470.45 836V833.315L2480.53 822.278C2481.71 820.986 2482.69 819.862 2483.45 818.908C2484.22 817.943 2484.79 817.038 2485.15 816.193C2485.53 815.338 2485.72 814.443 2485.72 813.509C2485.72 812.435 2485.46 811.505 2484.94 810.719C2484.44 809.934 2483.74 809.327 2482.86 808.9C2481.97 808.472 2480.98 808.259 2479.87 808.259C2478.7 808.259 2477.68 808.502 2476.8 808.989C2475.94 809.467 2475.26 810.138 2474.79 811.003C2474.32 811.868 2474.09 812.882 2474.09 814.045H2470.57C2470.57 812.256 2470.98 810.685 2471.8 809.332C2472.63 807.98 2473.75 806.926 2475.18 806.17C2476.61 805.415 2478.21 805.037 2479.99 805.037C2481.78 805.037 2483.37 805.415 2484.75 806.17C2486.13 806.926 2487.22 807.945 2488 809.228C2488.79 810.511 2489.18 811.938 2489.18 813.509C2489.18 814.632 2488.98 815.731 2488.57 816.805C2488.17 817.869 2487.47 819.057 2486.48 820.369C2485.5 821.672 2484.13 823.263 2482.38 825.142L2475.52 832.48V832.719H2489.72V836H2470.45ZM2505.42 836.418C2503.67 836.418 2502.1 836.07 2500.69 835.374C2499.29 834.678 2498.17 833.723 2497.32 832.51C2496.48 831.297 2496.02 829.915 2495.94 828.364H2499.52C2499.66 829.746 2500.28 830.889 2501.4 831.794C2502.52 832.689 2503.86 833.136 2505.42 833.136C2506.68 833.136 2507.79 832.843 2508.76 832.256C2509.75 831.67 2510.52 830.864 2511.07 829.84C2511.64 828.806 2511.93 827.638 2511.93 826.335C2511.93 825.003 2511.63 823.815 2511.05 822.771C2510.47 821.717 2509.67 820.886 2508.66 820.28C2507.64 819.673 2506.49 819.365 2505.18 819.355C2504.25 819.345 2503.29 819.489 2502.31 819.788C2501.32 820.076 2500.51 820.449 2499.87 820.906L2496.41 820.489L2498.26 805.455H2514.13V808.736H2501.37L2500.29 817.744H2500.47C2501.1 817.247 2501.88 816.835 2502.83 816.506C2503.77 816.178 2504.76 816.014 2505.78 816.014C2507.65 816.014 2509.31 816.462 2510.78 817.357C2512.25 818.241 2513.4 819.455 2514.24 820.996C2515.08 822.537 2515.5 824.297 2515.5 826.276C2515.5 828.224 2515.07 829.964 2514.19 831.496C2513.33 833.017 2512.13 834.22 2510.61 835.105C2509.09 835.98 2507.36 836.418 2505.42 836.418Z" fill="#9D9D9D"/>
<path d="M305 599L257 599L257 593L305 593L305 599ZM532 599L335 599L335 593L532 593L532 599ZM682 599L562 599L562 593L682 593L682 599ZM792 599L712 599L712 593L792 593L792 599ZM962 599L822 599L822 593L962 593L962 599ZM1102 599L992 599L992 593L1102 593L1102 599ZM1212 599L1132 599L1132 593L1212 593L1212 599ZM1342 599L1242 599L1242 593L1342 593L1342 599ZM1409 599L1372 599L1372 593L1409 593L1409 599ZM1580 599L1533 599L1533 593L1580 593L1580 599ZM1982 599L1782 599L1782 593L1982 593L1982 599ZM2212 599L2012 599L2012 593L2212 593L2212 599ZM2269 599L2242 599L2242 593L2269 593L2269 599ZM2398 599L2373 599L2373 593L2398 593L2398 599ZM2464 599L2428 599L2428 593L2464 593L2464 599ZM2545 599L2494 599L2494 593L2545 593L2545 599ZM1752 599L1610 599L1610 593L1752 593L1752 599Z" fill="#9D9C9D"/>
<path d="M408 689L257 689L257 683L408 683L408 689ZM675 689L438 689L438 683L675 683L675 689ZM905 689L705 689L705 683L905 683L905 689ZM1055 689L935 689L935 683L1055 683L1055 689ZM1154 689L1085 689L1085 683L1154 683L1154 689ZM1455 689L1413 689L1413 683L1455 683L1455 689ZM1592 689L1485 689L1485 683L1592 683L1592 689ZM2095 689L1875 689L1875 683L2095 683L2095 689ZM2159 689L2125 689L2125 683L2159 683L2159 689ZM2357 689L2189 689L2189 683L2357 683L2357 689ZM2431 689L2387 689L2387 683L2431 683L2431 689ZM2545 689L2449 689L2449 683L2545 683L2545 689ZM1845 689L1622 689L1622 683L1845 683L1845 689Z" fill="#9D9C9D"/>
</svg>
