<svg width="2549" height="1286" viewBox="0 0 2549 1286" fill="none" xmlns="http://www.w3.org/2000/svg">
<line x1="1546" y1="631" x2="1546" y2="399" stroke="#9C9D9C" stroke-width="6"/>
<rect x="179" y="730.5" width="50" height="153" transform="rotate(-180 179 730.5)" fill="#D8EBDE"/>
<line x1="507" y1="886" x2="507" y2="681" stroke="#9D9C9D" stroke-width="6"/>
<line x1="636" y1="601" x2="636" y2="401" stroke="#9C9D9C" stroke-width="6"/>
<line x1="453" y1="601" x2="453" y2="401" stroke="#9C9D9C" stroke-width="6"/>
<line x1="513" y1="561" x2="513" y2="401" stroke="#9C9D9C" stroke-width="6"/>
<line x1="572" y1="597" x2="572" y2="554" stroke="#9C9D9C" stroke-width="6"/>
<line x1="388" y1="514" x2="388" y2="401" stroke="#9C9D9C" stroke-width="6"/>
<line x1="98" y1="313" x2="3" y2="313" stroke="#9C9D9C" stroke-width="6"/>
<line x1="95" y1="276" x2="95" y2="249" stroke="#9C9D9C" stroke-width="6"/>
<line x1="95" y1="400" x2="95" y2="349" stroke="#9C9D9C" stroke-width="6"/>
<line x1="176" y1="403" x2="3" y2="403" stroke="#9C9D9C" stroke-width="6"/>
<line x1="176" y1="862" x2="3" y2="862" stroke="#9C9D9C" stroke-width="6"/>
<line x1="176" y1="1192" x2="3" y2="1192" stroke="#9C9D9C" stroke-width="6"/>
<line x1="388" y1="561" x2="388" y2="547" stroke="#9C9D9C" stroke-width="6"/>
<line x1="386" y1="558" x2="451" y2="558" stroke="#9C9D9C" stroke-width="6"/>
<line x1="510" y1="558" x2="528" y2="558" stroke="#9C9D9C" stroke-width="6"/>
<line x1="557" y1="558" x2="575" y2="558" stroke="#9C9D9C" stroke-width="6"/>
<line x1="766" y1="601" x2="766" y2="401" stroke="#9C9D9C" stroke-width="6"/>
<line x1="837" y1="601" x2="837" y2="401" stroke="#9C9D9C" stroke-width="6"/>
<line x1="1029" y1="601" x2="1029" y2="401" stroke="#9C9D9C" stroke-width="6"/>
<line x1="1151" y1="601" x2="1151" y2="401" stroke="#9C9D9C" stroke-width="6"/>
<line x1="1294" y1="601" x2="1294" y2="401" stroke="#9C9D9C" stroke-width="6"/>
<line x1="766" y1="887" x2="766" y2="682" stroke="#9D9C9D" stroke-width="6"/>
<line x1="946" y1="887" x2="946" y2="682" stroke="#9D9C9D" stroke-width="6"/>
<line x1="1151" y1="887" x2="1151" y2="682" stroke="#9D9C9D" stroke-width="6"/>
<line x1="1082" y1="601" x2="1082" y2="572" stroke="#9C9D9C" stroke-width="6"/>
<line x1="1709" y1="607" x2="1709" y2="534" stroke="#9C9D9C" stroke-width="6"/>
<line x1="1085" y1="534" x2="1085" y2="401" stroke="#9C9D9C" stroke-width="6"/>
<line x1="630" y1="688" x2="630" y2="717" stroke="#9C9D9C" stroke-width="6"/>
<line x1="630" y1="755" x2="630" y2="888" stroke="#9C9D9C" stroke-width="6"/>
<line x1="877" y1="689" x2="877" y2="773" stroke="#9C9D9C" stroke-width="6"/>
<line x1="877" y1="806" x2="877" y2="889" stroke="#9C9D9C" stroke-width="6"/>
<line x1="1007" y1="689" x2="1007" y2="743" stroke="#9C9D9C" stroke-width="6"/>
<line x1="1007" y1="776" x2="1007" y2="889" stroke="#9C9D9C" stroke-width="6"/>
<line x1="1507" y1="689" x2="1507" y2="699" stroke="#9C9D9C" stroke-width="6"/>
<line x1="1507" y1="736" x2="1507" y2="889" stroke="#9C9D9C" stroke-width="6"/>
<line x1="1907" y1="689" x2="1907" y2="699" stroke="#9C9D9C" stroke-width="6"/>
<line x1="1907" y1="736" x2="1907" y2="889" stroke="#9C9D9C" stroke-width="6"/>
<line x1="2085" y1="689" x2="2085" y2="699" stroke="#9C9D9C" stroke-width="6"/>
<line x1="2085" y1="736" x2="2085" y2="889" stroke="#9C9D9C" stroke-width="6"/>
<line x1="1709" y1="498" x2="1709" y2="407" stroke="#9C9D9C" stroke-width="6"/>
<line x1="1929" y1="607" x2="1929" y2="541" stroke="#9C9D9C" stroke-width="6"/>
<line x1="1929" y1="511" x2="1929" y2="407" stroke="#9C9D9C" stroke-width="6"/>
<line x1="2051" y1="607" x2="2051" y2="541" stroke="#9C9D9C" stroke-width="6"/>
<line x1="2051" y1="511" x2="2051" y2="407" stroke="#9C9D9C" stroke-width="6"/>
<line x1="1396" y1="637" x2="1396" y2="405" stroke="#9C9D9C" stroke-width="6"/>
<line x1="1416" y1="887" x2="1416" y2="682" stroke="#9D9C9D" stroke-width="6"/>
<line x1="1797" y1="887" x2="1797" y2="682" stroke="#9D9C9D" stroke-width="6"/>
<line x1="2137" y1="887" x2="2137" y2="682" stroke="#9D9C9D" stroke-width="6"/>
<line x1="1817" y1="607" x2="1817" y2="402" stroke="#9C9D9C" stroke-width="6"/>
<line x1="2163" y1="607" x2="2163" y2="402" stroke="#9C9D9C" stroke-width="6"/>
<line x1="2304" y1="887" x2="2304" y2="682" stroke="#9D9C9D" stroke-width="6"/>
<line x1="2266" y1="600" x2="2266" y2="402" stroke="#9C9D9C" stroke-width="6"/>
<line x1="2376" y1="600" x2="2376" y2="402" stroke="#9C9D9C" stroke-width="6"/>
<line x1="2446" y1="504" x2="2446" y2="402" stroke="#9C9D9C" stroke-width="6"/>
<line x1="2446" y1="594" x2="2446" y2="542" stroke="#9C9D9C" stroke-width="6"/>
<line x1="2546" y1="597" x2="2546" y2="402" stroke="#9C9D9C" stroke-width="6"/>
<line x1="2546" y1="889" x2="2546" y2="678" stroke="#9D9C9D" stroke-width="6"/>
<line x1="2449" y1="597" x2="2549" y2="597" stroke="#9D9D9C" stroke-width="6"/>
<path d="M252 1283L179 1283L179 3.99999L252 4L252 403.5L252 1283Z" fill="#D8EBDE"/>
<path d="M119 730.5L119 575.5" stroke="#9D9D9D" stroke-width="3"/>
<path d="M109 730.5L109 575.5" stroke="#9D9D9D" stroke-width="3"/>
<path d="M99 730.5L99 575.5" stroke="#9D9D9D" stroke-width="3"/>
<path d="M89 730.5L89 575.5" stroke="#9D9D9D" stroke-width="3"/>
<path d="M79 730.5L79 575.5" stroke="#9D9D9D" stroke-width="3"/>
<path d="M69 730.5L69 575.5" stroke="#9D9D9D" stroke-width="3"/>
<path d="M59 730.5L59 575.5" stroke="#9D9D9D" stroke-width="3"/>
<path d="M49 730.5L49 575.5" stroke="#9D9D9D" stroke-width="3"/>
<path d="M39 730.5L39 575.5" stroke="#9D9D9D" stroke-width="3"/>
<path d="M29 730.5L29 575.5" stroke="#9D9D9D" stroke-width="3"/>
<line x1="252" y1="886" x2="2549" y2="886" stroke="#9D9D9D" stroke-width="6"/>
<line x1="252" y1="402" x2="2549" y2="402" stroke="#9D9D9D" stroke-width="6"/>
<line x1="255" y1="1283" x2="482" y2="1283" stroke="#9C9D9C" stroke-width="6"/>
<line x1="255" y1="1179" x2="482" y2="1179" stroke="#9C9D9C" stroke-width="6"/>
<line x1="479" y1="1179" x2="479" y2="1282" stroke="#9C9C9C" stroke-width="6"/>
<path d="M453 1280L453 1182" stroke="#9D9D9D" stroke-width="3"/>
<path d="M443 1280L443 1182" stroke="#9D9D9D" stroke-width="3"/>
<path d="M433 1280L433 1182" stroke="#9D9D9D" stroke-width="3"/>
<path d="M423 1280L423 1182" stroke="#9D9D9D" stroke-width="3"/>
<path d="M413 1280L413 1182" stroke="#9D9D9D" stroke-width="3"/>
<path d="M403 1280L403 1182" stroke="#9D9D9D" stroke-width="3"/>
<path d="M393 1280L393 1182" stroke="#9D9D9D" stroke-width="3"/>
<path d="M383 1280L383 1182" stroke="#9D9D9D" stroke-width="3"/>
<path d="M1399 538L1543 538" stroke="#9D9D9D" stroke-width="3"/>
<path d="M2269 537L2373 537" stroke="#9D9D9D" stroke-width="3"/>
<path d="M1399 528L1543 528" stroke="#9D9D9D" stroke-width="3"/>
<path d="M2269 527L2373 527" stroke="#9D9D9D" stroke-width="3"/>
<path d="M1399 518L1543 518" stroke="#9D9D9D" stroke-width="3"/>
<path d="M2269 517L2373 517" stroke="#9D9D9D" stroke-width="3"/>
<path d="M1399 508L1543 508" stroke="#9D9D9D" stroke-width="3"/>
<path d="M2269 507L2373 507" stroke="#9D9D9D" stroke-width="3"/>
<path d="M1399 498L1543 498" stroke="#9D9D9D" stroke-width="3"/>
<path d="M2269 497L2373 497" stroke="#9D9D9D" stroke-width="3"/>
<path d="M1399 488L1543 488" stroke="#9D9D9D" stroke-width="3"/>
<path d="M2269 487L2373 487" stroke="#9D9D9D" stroke-width="3"/>
<path d="M1399 478L1543 478" stroke="#9D9D9D" stroke-width="3"/>
<path d="M2269 477L2373 477" stroke="#9D9D9D" stroke-width="3"/>
<path d="M1399 468L1543 468" stroke="#9D9D9D" stroke-width="3"/>
<path d="M2269 467L2373 467" stroke="#9D9D9D" stroke-width="3"/>
<path d="M2449 555L2549 555" stroke="#9D9D9D" stroke-width="6"/>
<path d="M2489 525L2549 525" stroke="#9D9D9D" stroke-width="3"/>
<path d="M2489 495L2549 495" stroke="#9D9D9D" stroke-width="3"/>
<path d="M2489 465L2549 465" stroke="#9D9D9D" stroke-width="3"/>
<path d="M2489 435L2549 435" stroke="#9D9D9D" stroke-width="3"/>
<path d="M373 1280L373 1182" stroke="#9D9D9D" stroke-width="3"/>
<path d="M363 1280L363 1182" stroke="#9D9D9D" stroke-width="3"/>
<rect x="257" y="1182" width="96" height="98" fill="#D9EBDE"/>
<rect x="257" y="599" width="2288" height="85" fill="#D9EBDE"/>
<rect x="1399" y="548" width="144" height="83" fill="#D9EBDE"/>
<rect x="2269" y="547" width="104" height="83" fill="#D9EBDE"/>
<line x1="1399" y1="596" x2="1409" y2="596" stroke="#9D9D9D" stroke-width="6"/>
<line x1="1533" y1="596" x2="1543" y2="596" stroke="#9D9D9D" stroke-width="6"/>
<rect x="2269" y="547" width="104" height="83" fill="#D9EBDE"/>
<path d="M305 689L257 689L257 683L305 683L305 689ZM675 689L335 689L335 683L675 683L675 689ZM905 689L705 689L705 683L905 683L905 689ZM1055 689L935 689L935 683L1055 683L1055 689ZM1205 689L1085 689L1085 683L1205 683L1205 689ZM1455 689L1235 689L1235 683L1455 683L1455 689ZM1845 689L1485 689L1485 683L1845 683L1845 689ZM2095 689L1875 689L1875 683L2095 683L2095 689ZM2159 689L2125 689L2125 683L2159 683L2159 689ZM2357 689L2189 689L2189 683L2357 683L2357 689ZM2545 689L2387 689L2387 683L2545 683L2545 689Z" fill="#9D9C9D"/>
<path d="M257 1285.5L1.06002e-06 1285.5L0 0L257 -2.11922e-07L257 1285.5ZM6 65L174 65L174 49L180 49L180 132L174 132L174 71L6 71L6 244L174 244L174 167L180 167L180 298L174 298L174 250L6 250L6 571.5L174 571.5L174 462.5L180 462.5L180 597.5L174 597.5L174 577.5L6 577.5L6 728L174 728L174 714.5L180 714.5L180 759.5L174 759.5L174 734L6 734L6 1030.5L174 1030.5L174 952L180 952L180 1092L174 1092L174 1036.5L6 1036.5L6 1279.5L174 1279.5L174 1243L180 1243L180 1279.5L251 1279.5L251 6L6 6L6 65ZM180 1213L174 1213L174 1121L180 1121L180 1213ZM180 922L174 922L174 788.5L180 788.5L180 922ZM180 424L174 424L174 328L180 328L180 424Z" fill="#9D9D9D"/>
<rect x="220" y="1207" width="44" height="51" fill="#D9EBDE"/>
<rect x="242" y="610" width="18" height="63" fill="#D9EBDE"/>
<path d="M305 599L257 599L257 593L305 593L305 599ZM532 599L335 599L335 593L532 593L532 599ZM682 599L562 599L562 593L682 593L682 599ZM792 599L712 599L712 593L792 593L792 599ZM962 599L822 599L822 593L962 593L962 599ZM1102 599L992 599L992 593L1102 593L1102 599ZM1212 599L1132 599L1132 593L1212 593L1212 599ZM1342 599L1242 599L1242 593L1342 593L1342 599ZM1409 599L1372 599L1372 593L1409 593L1409 599ZM1752 599L1533 599L1533 593L1752 593L1752 599ZM1982 599L1782 599L1782 593L1982 593L1982 599ZM2212 599L2012 599L2012 593L2212 593L2212 599ZM2269 599L2242 599L2242 593L2269 593L2269 599ZM2464 599L2428 599L2428 593L2464 593L2464 599ZM2545 599L2494 599L2494 593L2545 593L2545 599ZM2398 599L2373 599L2373 593L2398 593L2398 599Z" fill="#9D9C9D"/>
</svg>
