<svg width="2549" height="1286" viewBox="0 0 2549 1286" fill="none" xmlns="http://www.w3.org/2000/svg">
<line x1="1546" y1="630" x2="1546" y2="398" stroke="#9C9D9C" stroke-width="6"/>
<rect x="179" y="729.5" width="50" height="153" transform="rotate(-180 179 729.5)" fill="#D8EBDE"/>
<line x1="400" y1="885" x2="400" y2="680" stroke="#9D9C9D" stroke-width="6"/>
<line x1="636" y1="600" x2="636" y2="400" stroke="#9C9D9C" stroke-width="6"/>
<line x1="766" y1="600" x2="766" y2="400" stroke="#9C9D9C" stroke-width="6"/>
<line x1="766" y1="886" x2="766" y2="681" stroke="#9D9C9D" stroke-width="6"/>
<line x1="1126" y1="533" x2="1126" y2="400" stroke="#9C9D9C" stroke-width="6"/>
<line x1="1126" y1="600" x2="1126" y2="571" stroke="#9C9D9C" stroke-width="6"/>
<line x1="1026" y1="600" x2="1026" y2="571" stroke="#9C9D9C" stroke-width="6"/>
<line x1="1026" y1="533" x2="1026" y2="400" stroke="#9C9D9C" stroke-width="6"/>
<line x1="1396" y1="636" x2="1396" y2="404" stroke="#9C9D9C" stroke-width="6"/>
<line x1="1396" y1="886" x2="1396" y2="681" stroke="#9D9C9D" stroke-width="6"/>
<line x1="1766" y1="886" x2="1766" y2="681" stroke="#9D9C9D" stroke-width="6"/>
<line x1="1766" y1="606" x2="1766" y2="401" stroke="#9C9D9C" stroke-width="6"/>
<line x1="1876" y1="886" x2="1876" y2="681" stroke="#9D9C9D" stroke-width="6"/>
<line x1="2046" y1="886" x2="2046" y2="681" stroke="#9D9C9D" stroke-width="6"/>
<line x1="2046" y1="606" x2="2046" y2="401" stroke="#9C9D9C" stroke-width="6"/>
<line x1="2266" y1="886" x2="2266" y2="681" stroke="#9D9C9D" stroke-width="6"/>
<line x1="2266" y1="599" x2="2266" y2="401" stroke="#9C9D9C" stroke-width="6"/>
<line x1="2376" y1="886" x2="2376" y2="681" stroke="#9D9C9D" stroke-width="6"/>
<line x1="2376" y1="599" x2="2376" y2="401" stroke="#9C9D9C" stroke-width="6"/>
<line x1="2446" y1="599" x2="2446" y2="401" stroke="#9C9D9C" stroke-width="6"/>
<line x1="2546" y1="596" x2="2546" y2="401" stroke="#9C9D9C" stroke-width="6"/>
<line x1="2546" y1="888" x2="2546" y2="677" stroke="#9D9C9D" stroke-width="6"/>
<line x1="2489" y1="596" x2="2549" y2="596" stroke="#9D9D9C" stroke-width="6"/>
<line x1="2511" y1="596" x2="2511" y2="681" stroke="#9D9D9C" stroke-width="6"/>
<path d="M3.00011 68L3.00011 2.99998L254 3L254 1282.5L177 1282.5M3.00011 68L177 68L177 44L177 105M3.00011 68L3.00009 247M177 341L177 247M177 597.5L177 574.5M177 411L177 574.5M177 714.5L177 731M177 1050L177 1033.5M177 816.5L177 1033.5M177 1282.5L3 1282.5L3.00002 1050L3.00002 1033.5M177 1282.5L177 1108M177 147L177 247M177 371L177 247M177 1033.5L3.00002 1033.5M3.00002 1033.5L3.00005 759.5L3.00005 731M177 731L177 778.5L177 759.5L177 731ZM177 731L3.00005 731M3.00005 731L3.00006 621.5L3.00006 574.5M177 574.5L3.00006 574.5M3.00006 574.5L3.00008 341L3.00009 247M177 247L3.00009 247" stroke="#9D9D9D" stroke-width="6"/>
<path d="M252 1282L179 1282L179 2.99999L252 3L252 402.5L252 1282Z" fill="#D8EBDE"/>
<path d="M119 729.5L119 574.5" stroke="#9D9D9D" stroke-width="3"/>
<path d="M109 729.5L109 574.5" stroke="#9D9D9D" stroke-width="3"/>
<path d="M99 729.5L99 574.5" stroke="#9D9D9D" stroke-width="3"/>
<path d="M89 729.5L89 574.5" stroke="#9D9D9D" stroke-width="3"/>
<path d="M79 729.5L79 574.5" stroke="#9D9D9D" stroke-width="3"/>
<path d="M69 729.5L69 574.5" stroke="#9D9D9D" stroke-width="3"/>
<path d="M59 729.5L59 574.5" stroke="#9D9D9D" stroke-width="3"/>
<path d="M49 729.5L49 574.5" stroke="#9D9D9D" stroke-width="3"/>
<path d="M39 729.5L39 574.5" stroke="#9D9D9D" stroke-width="3"/>
<path d="M29 729.5L29 574.5" stroke="#9D9D9D" stroke-width="3"/>
<line x1="252" y1="885" x2="2549" y2="885" stroke="#9D9D9D" stroke-width="6"/>
<line x1="252" y1="401" x2="2549" y2="401" stroke="#9D9D9D" stroke-width="6"/>
<rect x="220" y="1206" width="44" height="51" fill="#D9EBDE"/>
<line x1="255" y1="1282" x2="482" y2="1282" stroke="#9C9D9C" stroke-width="6"/>
<line x1="255" y1="1178" x2="482" y2="1178" stroke="#9C9D9C" stroke-width="6"/>
<line x1="479" y1="1178" x2="479" y2="1281" stroke="#9C9C9C" stroke-width="6"/>
<path d="M453 1279L453 1181" stroke="#9D9D9D" stroke-width="3"/>
<path d="M443 1279L443 1181" stroke="#9D9D9D" stroke-width="3"/>
<path d="M433 1279L433 1181" stroke="#9D9D9D" stroke-width="3"/>
<path d="M423 1279L423 1181" stroke="#9D9D9D" stroke-width="3"/>
<path d="M413 1279L413 1181" stroke="#9D9D9D" stroke-width="3"/>
<path d="M403 1279L403 1181" stroke="#9D9D9D" stroke-width="3"/>
<path d="M393 1279L393 1181" stroke="#9D9D9D" stroke-width="3"/>
<path d="M383 1279L383 1181" stroke="#9D9D9D" stroke-width="3"/>
<path d="M1399 537L1543 537" stroke="#9D9D9D" stroke-width="3"/>
<path d="M2269 536L2373 536" stroke="#9D9D9D" stroke-width="3"/>
<path d="M1399 527L1543 527" stroke="#9D9D9D" stroke-width="3"/>
<path d="M2269 526L2373 526" stroke="#9D9D9D" stroke-width="3"/>
<path d="M1399 517L1543 517" stroke="#9D9D9D" stroke-width="3"/>
<path d="M2269 516L2373 516" stroke="#9D9D9D" stroke-width="3"/>
<path d="M1399 507L1543 507" stroke="#9D9D9D" stroke-width="3"/>
<path d="M2269 506L2373 506" stroke="#9D9D9D" stroke-width="3"/>
<path d="M1399 497L1543 497" stroke="#9D9D9D" stroke-width="3"/>
<path d="M2269 496L2373 496" stroke="#9D9D9D" stroke-width="3"/>
<path d="M1399 487L1543 487" stroke="#9D9D9D" stroke-width="3"/>
<path d="M2269 486L2373 486" stroke="#9D9D9D" stroke-width="3"/>
<path d="M1399 477L1543 477" stroke="#9D9D9D" stroke-width="3"/>
<path d="M2269 476L2373 476" stroke="#9D9D9D" stroke-width="3"/>
<path d="M1399 467L1543 467" stroke="#9D9D9D" stroke-width="3"/>
<path d="M2269 466L2373 466" stroke="#9D9D9D" stroke-width="3"/>
<path d="M2489 584L2549 584" stroke="#9D9D9D" stroke-width="3"/>
<path d="M2489 554L2549 554" stroke="#9D9D9D" stroke-width="3"/>
<path d="M2489 524L2549 524" stroke="#9D9D9D" stroke-width="3"/>
<path d="M2489 494L2549 494" stroke="#9D9D9D" stroke-width="3"/>
<path d="M2489 464L2549 464" stroke="#9D9D9D" stroke-width="3"/>
<path d="M2489 434L2549 434" stroke="#9D9D9D" stroke-width="3"/>
<path d="M2397 584L2444 584" stroke="#9D9D9D" stroke-width="3"/>
<path d="M2397 554L2444 554" stroke="#9D9D9D" stroke-width="3"/>
<path d="M2397 524L2444 524" stroke="#9D9D9D" stroke-width="3"/>
<path d="M2397 494L2444 494" stroke="#9D9D9D" stroke-width="3"/>
<path d="M2397 464L2444 464" stroke="#9D9D9D" stroke-width="3"/>
<path d="M2397 434L2444 434" stroke="#9D9D9D" stroke-width="3"/>
<path d="M373 1279L373 1181" stroke="#9D9D9D" stroke-width="3"/>
<path d="M363 1279L363 1181" stroke="#9D9D9D" stroke-width="3"/>
<rect x="257" y="1181" width="96" height="98" fill="#D9EBDE"/>
<rect x="242" y="609" width="18" height="63" fill="#D9EBDE"/>
<rect x="257" y="599" width="2251" height="83" fill="#D9EBDE"/>
<rect x="1399" y="547" width="144" height="83" fill="#D9EBDE"/>
<rect x="2269" y="546" width="104" height="83" fill="#D9EBDE"/>
<line x1="1399" y1="596" x2="1409" y2="596" stroke="#9D9D9D" stroke-width="6"/>
<line x1="1533" y1="596" x2="1543" y2="596" stroke="#9D9D9D" stroke-width="6"/>
<path d="M1029 886H1023V736H1029V886ZM1029 706H1023V681H1029V706Z" fill="#9D9C9D"/>
<path d="M1129 886H1123V736H1129V886ZM1129 706H1123V681H1129V706Z" fill="#9D9C9D"/>
<path d="M494 599H257V593H494V599ZM686 599H524V593H686V599ZM1190 599H716V593H1190V599ZM1315 599H1220V593H1315V599ZM1403.16 599H1345V593H1403.16V599ZM1719 599H1547.69V593H1719V599ZM1945 599H1749V593H1945V599ZM2206 599H1975V593H2206V599ZM2393 599H2236V593H2393V599ZM2459 599H2423V593H2459V599Z" fill="#9D9D9C"/>
<path d="M307 688H257V682H307V688ZM494 688H337V682H494V688ZM1066 688H524V682H1066V688ZM1181 688H1096V682H1181V688ZM1428 688H1211V682H1428V688ZM1810 688H1458V682H1810V688ZM1952 688H1840V682H1952V688ZM2140 688H1982V682H2140V688ZM2318 688H2170V682H2318V688ZM2400 688H2348V682H2400V688ZM2549 688H2430V682H2549V688Z" fill="#9D9D9C"/>
<rect x="2269" y="546" width="104" height="83" fill="#D9EBDE"/>
</svg>
