<svg width="1343" height="1286" viewBox="0 0 1343 1286" fill="none" xmlns="http://www.w3.org/2000/svg">
<rect x="179" y="729.5" width="50" height="153" transform="rotate(-180 179 729.5)" fill="#A6DFE6"/>
<path d="M3.00011 68L3.00011 2.99998L254 3L254 1282.5L177 1282.5M3.00011 68L177 68L177 44L177 105M3.00011 68L3.00009 247M177 341L177 247M177 597.5L177 574.5M177 411L177 574.5M177 714.5L177 731M177 1050L177 1033.5M177 816.5L177 1033.5M177 1282.5L3 1282.5L3.00002 1050L3.00002 1033.5M177 1282.5L177 1108M177 147L177 247M177 371L177 247M177 1033.5L3.00002 1033.5M3.00002 1033.5L3.00005 759.5L3.00005 731M177 731L177 778.5L177 759.5L177 731ZM177 731L3.00005 731M3.00005 731L3.00006 621.5L3.00006 574.5M177 574.5L3.00006 574.5M3.00006 574.5L3.00008 341L3.00009 247M177 247L3.00009 247" stroke="#9D9D9D" stroke-width="6"/>
<rect x="252" y="1282.5" width="73" height="1279" transform="rotate(-180 252 1282.5)" fill="#A6DFE6"/>
<path d="M119 729.5L119 574.5" stroke="#9D9D9D" stroke-width="3"/>
<path d="M109 729.5L109 574.5" stroke="#9D9D9D" stroke-width="3"/>
<path d="M99 729.5L99 574.5" stroke="#9D9D9D" stroke-width="3"/>
<path d="M89 729.5L89 574.5" stroke="#9D9D9D" stroke-width="3"/>
<path d="M79 729.5L79 574.5" stroke="#9D9D9D" stroke-width="3"/>
<path d="M69 729.5L69 574.5" stroke="#9D9D9D" stroke-width="3"/>
<path d="M59 729.5L59 574.5" stroke="#9D9D9D" stroke-width="3"/>
<path d="M49 729.5L49 574.5" stroke="#9D9D9D" stroke-width="3"/>
<path d="M39 729.5L39 574.5" stroke="#9D9D9D" stroke-width="3"/>
<path d="M29 729.5L29 574.5" stroke="#9D9D9D" stroke-width="3"/>
<path d="M53.446 38.2358V35.1932L66.8693 13.9545H69.0767V18.6676H67.5852L57.4432 34.7159V34.9545H75.5199V38.2358H53.446ZM67.8239 44.5V37.3111V35.8942V13.9545H71.3438V44.5H67.8239ZM82.2987 44.7386C81.5629 44.7386 80.9315 44.4751 80.4045 43.9482C79.8775 43.4212 79.614 42.7898 79.614 42.054C79.614 41.3182 79.8775 40.6868 80.4045 40.1598C80.9315 39.6328 81.5629 39.3693 82.2987 39.3693C83.0344 39.3693 83.6658 39.6328 84.1928 40.1598C84.7198 40.6868 84.9833 41.3182 84.9833 42.054C84.9833 42.5412 84.859 42.9886 84.6104 43.3963C84.3718 43.804 84.0487 44.1321 83.641 44.3807C83.2433 44.6193 82.7958 44.7386 82.2987 44.7386ZM100.137 44.9176C97.8896 44.9176 95.9755 44.3061 94.3945 43.0831C92.8136 41.8501 91.6055 40.0653 90.7702 37.7287C89.935 35.3821 89.5174 32.5483 89.5174 29.2273C89.5174 25.9261 89.935 23.1072 90.7702 20.7706C91.6154 18.424 92.8285 16.6342 94.4094 15.4013C96.0004 14.1584 97.9094 13.5369 100.137 13.5369C102.364 13.5369 104.268 14.1584 105.849 15.4013C107.44 16.6342 108.653 18.424 109.488 20.7706C110.333 23.1072 110.756 25.9261 110.756 29.2273C110.756 32.5483 110.338 35.3821 109.503 37.7287C108.668 40.0653 107.46 41.8501 105.879 43.0831C104.298 44.3061 102.384 44.9176 100.137 44.9176ZM100.137 41.6364C102.364 41.6364 104.094 40.5625 105.327 38.4148C106.56 36.267 107.176 33.2045 107.176 29.2273C107.176 26.5824 106.893 24.3303 106.326 22.4709C105.77 20.6115 104.964 19.1946 103.91 18.2202C102.866 17.2457 101.608 16.7585 100.137 16.7585C97.9293 16.7585 96.2042 17.8473 94.9613 20.0249C93.7184 22.1925 93.0969 25.2599 93.0969 29.2273C93.0969 31.8722 93.3754 34.1193 93.9322 35.9688C94.489 37.8182 95.2894 39.2251 96.3335 40.1896C97.3874 41.1541 98.6552 41.6364 100.137 41.6364ZM127.162 13.9545V44.5H123.463V17.8324H123.284L115.827 22.7841V19.0256L123.463 13.9545H127.162Z" fill="#9D9D9D"/>
<path d="M45.446 161.736V158.693L58.8693 137.455H61.0767V142.168H59.5852L49.4432 158.216V158.455H67.5199V161.736H45.446ZM59.8239 168V160.811V159.394V137.455H63.3438V168H59.8239ZM74.2987 168.239C73.5629 168.239 72.9315 167.975 72.4045 167.448C71.8775 166.921 71.614 166.29 71.614 165.554C71.614 164.818 71.8775 164.187 72.4045 163.66C72.9315 163.133 73.5629 162.869 74.2987 162.869C75.0344 162.869 75.6658 163.133 76.1928 163.66C76.7198 164.187 76.9833 164.818 76.9833 165.554C76.9833 166.041 76.859 166.489 76.6104 166.896C76.3718 167.304 76.0487 167.632 75.641 167.881C75.2433 168.119 74.7958 168.239 74.2987 168.239ZM92.1367 168.418C89.8896 168.418 87.9755 167.806 86.3945 166.583C84.8136 165.35 83.6055 163.565 82.7702 161.229C81.935 158.882 81.5174 156.048 81.5174 152.727C81.5174 149.426 81.935 146.607 82.7702 144.271C83.6154 141.924 84.8285 140.134 86.4094 138.901C88.0004 137.658 89.9094 137.037 92.1367 137.037C94.364 137.037 96.2681 137.658 97.8491 138.901C99.44 140.134 100.653 141.924 101.488 144.271C102.333 146.607 102.756 149.426 102.756 152.727C102.756 156.048 102.338 158.882 101.503 161.229C100.668 163.565 99.4599 165.35 97.8789 166.583C96.2979 167.806 94.3839 168.418 92.1367 168.418ZM92.1367 165.136C94.364 165.136 96.0941 164.062 97.3271 161.915C98.56 159.767 99.1765 156.705 99.1765 152.727C99.1765 150.082 98.8931 147.83 98.3264 145.971C97.7695 144.112 96.9641 142.695 95.9102 141.72C94.8661 140.746 93.6083 140.259 92.1367 140.259C89.9293 140.259 88.2042 141.347 86.9613 143.525C85.7184 145.692 85.0969 148.76 85.0969 152.727C85.0969 155.372 85.3754 157.619 85.9322 159.469C86.489 161.318 87.2894 162.725 88.3335 163.69C89.3874 164.654 90.6552 165.136 92.1367 165.136ZM108.424 168V165.315L118.506 154.278C119.689 152.986 120.664 151.862 121.429 150.908C122.195 149.943 122.762 149.038 123.13 148.193C123.507 147.338 123.696 146.443 123.696 145.509C123.696 144.435 123.438 143.505 122.921 142.719C122.414 141.934 121.718 141.327 120.833 140.9C119.948 140.472 118.953 140.259 117.85 140.259C116.676 140.259 115.652 140.502 114.777 140.989C113.912 141.467 113.241 142.138 112.764 143.003C112.297 143.868 112.063 144.882 112.063 146.045H108.543C108.543 144.256 108.956 142.685 109.781 141.332C110.606 139.98 111.73 138.926 113.152 138.17C114.583 137.415 116.189 137.037 117.969 137.037C119.759 137.037 121.345 137.415 122.727 138.17C124.109 138.926 125.193 139.945 125.978 141.228C126.764 142.511 127.157 143.938 127.157 145.509C127.157 146.632 126.953 147.731 126.545 148.805C126.147 149.869 125.451 151.057 124.457 152.369C123.473 153.672 122.105 155.263 120.355 157.142L113.495 164.48V164.719H127.694V168H108.424Z" fill="#9D9D9D"/>
<path d="M41.446 411.736V408.693L54.8693 387.455H57.0767V392.168H55.5852L45.4432 408.216V408.455H63.5199V411.736H41.446ZM55.8239 418V410.811V409.394V387.455H59.3438V418H55.8239ZM70.2987 418.239C69.5629 418.239 68.9315 417.975 68.4045 417.448C67.8775 416.921 67.614 416.29 67.614 415.554C67.614 414.818 67.8775 414.187 68.4045 413.66C68.9315 413.133 69.5629 412.869 70.2987 412.869C71.0344 412.869 71.6658 413.133 72.1928 413.66C72.7198 414.187 72.9833 414.818 72.9833 415.554C72.9833 416.041 72.859 416.489 72.6104 416.896C72.3718 417.304 72.0487 417.632 71.641 417.881C71.2433 418.119 70.7958 418.239 70.2987 418.239ZM88.1367 418.418C85.8896 418.418 83.9755 417.806 82.3945 416.583C80.8136 415.35 79.6055 413.565 78.7702 411.229C77.935 408.882 77.5174 406.048 77.5174 402.727C77.5174 399.426 77.935 396.607 78.7702 394.271C79.6154 391.924 80.8285 390.134 82.4094 388.901C84.0004 387.658 85.9094 387.037 88.1367 387.037C90.364 387.037 92.2681 387.658 93.8491 388.901C95.44 390.134 96.6531 391.924 97.4883 394.271C98.3335 396.607 98.756 399.426 98.756 402.727C98.756 406.048 98.3384 408.882 97.5032 411.229C96.668 413.565 95.4599 415.35 93.8789 416.583C92.2979 417.806 90.3839 418.418 88.1367 418.418ZM88.1367 415.136C90.364 415.136 92.0941 414.062 93.3271 411.915C94.56 409.767 95.1765 406.705 95.1765 402.727C95.1765 400.082 94.8931 397.83 94.3264 395.971C93.7695 394.112 92.9641 392.695 91.9102 391.72C90.8661 390.746 89.6083 390.259 88.1367 390.259C85.9293 390.259 84.2042 391.347 82.9613 393.525C81.7184 395.692 81.0969 398.76 81.0969 402.727C81.0969 405.372 81.3754 407.619 81.9322 409.469C82.489 411.318 83.2894 412.725 84.3335 413.69C85.3874 414.654 86.6552 415.136 88.1367 415.136ZM114.745 418.418C112.776 418.418 111.021 418.08 109.48 417.403C107.949 416.727 106.73 415.788 105.826 414.585C104.931 413.371 104.444 411.964 104.364 410.364H108.123C108.202 411.348 108.54 412.198 109.137 412.914C109.733 413.62 110.514 414.167 111.478 414.555C112.443 414.942 113.512 415.136 114.685 415.136C115.998 415.136 117.161 414.908 118.175 414.45C119.189 413.993 119.985 413.357 120.561 412.541C121.138 411.726 121.426 410.781 121.426 409.707C121.426 408.584 121.148 407.594 120.591 406.739C120.034 405.874 119.219 405.198 118.145 404.711C117.071 404.224 115.759 403.98 114.208 403.98H111.762V400.699H114.208C115.421 400.699 116.485 400.48 117.4 400.043C118.324 399.605 119.045 398.989 119.562 398.193C120.089 397.398 120.353 396.463 120.353 395.389C120.353 394.355 120.124 393.455 119.667 392.69C119.209 391.924 118.563 391.327 117.728 390.9C116.902 390.472 115.928 390.259 114.804 390.259C113.75 390.259 112.756 390.452 111.821 390.84C110.897 391.218 110.141 391.77 109.554 392.496C108.968 393.212 108.65 394.077 108.6 395.091H105.02C105.08 393.49 105.562 392.088 106.467 390.885C107.372 389.672 108.555 388.727 110.017 388.051C111.488 387.375 113.104 387.037 114.864 387.037C116.753 387.037 118.374 387.42 119.726 388.185C121.078 388.941 122.118 389.94 122.843 391.183C123.569 392.426 123.932 393.768 123.932 395.21C123.932 396.93 123.48 398.397 122.575 399.61C121.68 400.823 120.462 401.663 118.921 402.131V402.369C120.85 402.687 122.356 403.508 123.44 404.83C124.524 406.143 125.066 407.768 125.066 409.707C125.066 411.368 124.613 412.859 123.708 414.182C122.814 415.494 121.591 416.528 120.039 417.284C118.488 418.04 116.723 418.418 114.745 418.418Z" fill="#9D9D9D"/>
<path d="M45.446 910.736V907.693L58.8693 886.455H61.0767V891.168H59.5852L49.4432 907.216V907.455H67.5199V910.736H45.446ZM59.8239 917V909.811V908.394V886.455H63.3438V917H59.8239ZM74.2987 917.239C73.5629 917.239 72.9315 916.975 72.4045 916.448C71.8775 915.921 71.614 915.29 71.614 914.554C71.614 913.818 71.8775 913.187 72.4045 912.66C72.9315 912.133 73.5629 911.869 74.2987 911.869C75.0344 911.869 75.6658 912.133 76.1928 912.66C76.7198 913.187 76.9833 913.818 76.9833 914.554C76.9833 915.041 76.859 915.489 76.6104 915.896C76.3718 916.304 76.0487 916.632 75.641 916.881C75.2433 917.119 74.7958 917.239 74.2987 917.239ZM92.1367 917.418C89.8896 917.418 87.9755 916.806 86.3945 915.583C84.8136 914.35 83.6055 912.565 82.7702 910.229C81.935 907.882 81.5174 905.048 81.5174 901.727C81.5174 898.426 81.935 895.607 82.7702 893.271C83.6154 890.924 84.8285 889.134 86.4094 887.901C88.0004 886.658 89.9094 886.037 92.1367 886.037C94.364 886.037 96.2681 886.658 97.8491 887.901C99.44 889.134 100.653 890.924 101.488 893.271C102.333 895.607 102.756 898.426 102.756 901.727C102.756 905.048 102.338 907.882 101.503 910.229C100.668 912.565 99.4599 914.35 97.8789 915.583C96.2979 916.806 94.3839 917.418 92.1367 917.418ZM92.1367 914.136C94.364 914.136 96.0941 913.062 97.3271 910.915C98.56 908.767 99.1765 905.705 99.1765 901.727C99.1765 899.082 98.8931 896.83 98.3264 894.971C97.7695 893.112 96.9641 891.695 95.9102 890.72C94.8661 889.746 93.6083 889.259 92.1367 889.259C89.9293 889.259 88.2042 890.347 86.9613 892.525C85.7184 894.692 85.0969 897.76 85.0969 901.727C85.0969 904.372 85.3754 906.619 85.9322 908.469C86.489 910.318 87.2894 911.725 88.3335 912.69C89.3874 913.654 90.6552 914.136 92.1367 914.136ZM107.708 910.736V907.693L121.131 886.455H123.338V891.168H121.847L111.705 907.216V907.455H129.782V910.736H107.708ZM122.086 917V909.811V908.394V886.455H125.605V917H122.086Z" fill="#9D9D9D"/>
<path d="M51.446 1167.74V1164.69L64.8693 1143.45H67.0767V1148.17H65.5852L55.4432 1164.22V1164.45H73.5199V1167.74H51.446ZM65.8239 1174V1166.81V1165.39V1143.45H69.3438V1174H65.8239ZM80.2987 1174.24C79.5629 1174.24 78.9315 1173.98 78.4045 1173.45C77.8775 1172.92 77.614 1172.29 77.614 1171.55C77.614 1170.82 77.8775 1170.19 78.4045 1169.66C78.9315 1169.13 79.5629 1168.87 80.2987 1168.87C81.0344 1168.87 81.6658 1169.13 82.1928 1169.66C82.7198 1170.19 82.9833 1170.82 82.9833 1171.55C82.9833 1172.04 82.859 1172.49 82.6104 1172.9C82.3718 1173.3 82.0487 1173.63 81.641 1173.88C81.2433 1174.12 80.7958 1174.24 80.2987 1174.24ZM98.1367 1174.42C95.8896 1174.42 93.9755 1173.81 92.3945 1172.58C90.8136 1171.35 89.6055 1169.57 88.7702 1167.23C87.935 1164.88 87.5174 1162.05 87.5174 1158.73C87.5174 1155.43 87.935 1152.61 88.7702 1150.27C89.6154 1147.92 90.8285 1146.13 92.4094 1144.9C94.0004 1143.66 95.9094 1143.04 98.1367 1143.04C100.364 1143.04 102.268 1143.66 103.849 1144.9C105.44 1146.13 106.653 1147.92 107.488 1150.27C108.333 1152.61 108.756 1155.43 108.756 1158.73C108.756 1162.05 108.338 1164.88 107.503 1167.23C106.668 1169.57 105.46 1171.35 103.879 1172.58C102.298 1173.81 100.384 1174.42 98.1367 1174.42ZM98.1367 1171.14C100.364 1171.14 102.094 1170.06 103.327 1167.91C104.56 1165.77 105.176 1162.7 105.176 1158.73C105.176 1156.08 104.893 1153.83 104.326 1151.97C103.77 1150.11 102.964 1148.69 101.91 1147.72C100.866 1146.75 99.6083 1146.26 98.1367 1146.26C95.9293 1146.26 94.2042 1147.35 92.9613 1149.52C91.7184 1151.69 91.0969 1154.76 91.0969 1158.73C91.0969 1161.37 91.3754 1163.62 91.9322 1165.47C92.489 1167.32 93.2894 1168.73 94.3335 1169.69C95.3874 1170.65 96.6552 1171.14 98.1367 1171.14ZM123.969 1174.42C122.219 1174.42 120.643 1174.07 119.241 1173.37C117.839 1172.68 116.716 1171.72 115.87 1170.51C115.025 1169.3 114.563 1167.91 114.483 1166.36H118.063C118.202 1167.75 118.828 1168.89 119.942 1169.79C121.066 1170.69 122.408 1171.14 123.969 1171.14C125.222 1171.14 126.336 1170.84 127.31 1170.26C128.294 1169.67 129.065 1168.86 129.622 1167.84C130.189 1166.81 130.472 1165.64 130.472 1164.34C130.472 1163 130.179 1161.81 129.592 1160.77C129.015 1159.72 128.22 1158.89 127.206 1158.28C126.191 1157.67 125.033 1157.37 123.73 1157.36C122.796 1157.35 121.836 1157.49 120.852 1157.79C119.868 1158.08 119.057 1158.45 118.421 1158.91L114.961 1158.49L116.81 1143.45H132.679V1146.74H119.912L118.838 1155.74H119.017C119.644 1155.25 120.429 1154.83 121.374 1154.51C122.319 1154.18 123.303 1154.01 124.327 1154.01C126.196 1154.01 127.862 1154.46 129.324 1155.36C130.795 1156.24 131.949 1157.45 132.784 1159C133.629 1160.54 134.051 1162.3 134.051 1164.28C134.051 1166.22 133.614 1167.96 132.739 1169.5C131.874 1171.02 130.681 1172.22 129.159 1173.11C127.638 1173.98 125.908 1174.42 123.969 1174.42Z" fill="#9D9D9D"/>
<path d="M637.298 1246.81L636.801 1259.59H632.256V1251H629.699V1246.81H637.298ZM606.403 1251V1214.64H610.594V1246.95H629.344V1214.64H633.534V1251H606.403ZM654.819 1251.57C652.191 1251.57 649.924 1250.99 648.018 1249.83C646.124 1248.66 644.662 1247.02 643.633 1244.93C642.615 1242.82 642.106 1240.37 642.106 1237.58C642.106 1234.78 642.615 1232.32 643.633 1230.19C644.662 1228.05 646.095 1226.38 647.93 1225.18C649.776 1223.98 651.93 1223.37 654.393 1223.37C655.813 1223.37 657.216 1223.61 658.601 1224.08C659.986 1224.56 661.246 1225.33 662.383 1226.39C663.519 1227.44 664.425 1228.84 665.099 1230.58C665.774 1232.32 666.111 1234.46 666.111 1237.01V1238.78H645.089V1235.16H661.85C661.85 1233.62 661.542 1232.25 660.927 1231.04C660.323 1229.84 659.459 1228.88 658.334 1228.18C657.222 1227.49 655.908 1227.14 654.393 1227.14C652.724 1227.14 651.279 1227.55 650.06 1228.38C648.853 1229.2 647.924 1230.26 647.273 1231.58C646.622 1232.89 646.296 1234.3 646.296 1235.8V1238.22C646.296 1240.28 646.651 1242.02 647.361 1243.45C648.083 1244.87 649.084 1245.96 650.362 1246.7C651.64 1247.44 653.126 1247.8 654.819 1247.8C655.92 1247.8 656.914 1247.65 657.802 1247.34C658.701 1247.02 659.477 1246.55 660.128 1245.92C660.779 1245.28 661.282 1244.49 661.637 1243.54L665.685 1244.68C665.259 1246.05 664.543 1247.26 663.537 1248.3C662.531 1249.33 661.288 1250.14 659.808 1250.72C658.328 1251.28 656.665 1251.57 654.819 1251.57ZM690.738 1235.45V1239.35H675.682V1235.45H690.738ZM676.676 1223.73V1251H672.486V1223.73H676.676ZM693.934 1223.73V1251H689.744V1223.73H693.934ZM697.876 1227.63V1223.73H720.035V1227.63H711.086V1251H706.896V1227.63H697.876ZM726.148 1261.23V1223.73H730.196V1228.06H730.693C731.001 1227.59 731.427 1226.98 731.972 1226.25C732.528 1225.5 733.321 1224.84 734.351 1224.26C735.393 1223.67 736.801 1223.37 738.577 1223.37C740.873 1223.37 742.897 1223.95 744.649 1225.09C746.401 1226.24 747.768 1227.87 748.751 1229.98C749.733 1232.08 750.224 1234.57 750.224 1237.43C750.224 1240.32 749.733 1242.83 748.751 1244.95C747.768 1247.05 746.407 1248.69 744.667 1249.85C742.927 1250.99 740.92 1251.57 738.648 1251.57C736.896 1251.57 735.493 1251.28 734.44 1250.7C733.386 1250.11 732.575 1249.44 732.007 1248.69C731.439 1247.93 731.001 1247.31 730.693 1246.81H730.338V1261.23H726.148ZM730.267 1237.36C730.267 1239.42 730.569 1241.24 731.173 1242.81C731.776 1244.38 732.658 1245.6 733.818 1246.49C734.978 1247.37 736.399 1247.8 738.08 1247.8C739.831 1247.8 741.293 1247.34 742.465 1246.42C743.649 1245.48 744.537 1244.23 745.129 1242.65C745.732 1241.07 746.034 1239.3 746.034 1237.36C746.034 1235.45 745.738 1233.72 745.146 1232.18C744.566 1230.63 743.684 1229.4 742.501 1228.5C741.329 1227.59 739.855 1227.14 738.08 1227.14C736.375 1227.14 734.943 1227.57 733.783 1228.43C732.623 1229.28 731.747 1230.48 731.155 1232.02C730.563 1233.55 730.267 1235.33 730.267 1237.36ZM764.642 1251.64C762.914 1251.64 761.345 1251.31 759.937 1250.66C758.528 1250 757.41 1249.05 756.581 1247.8C755.752 1246.55 755.338 1245.03 755.338 1243.26C755.338 1241.7 755.646 1240.43 756.261 1239.46C756.877 1238.48 757.7 1237.71 758.729 1237.15C759.759 1236.59 760.896 1236.18 762.138 1235.91C763.393 1235.62 764.654 1235.4 765.92 1235.23C767.578 1235.02 768.921 1234.86 769.951 1234.75C770.993 1234.64 771.75 1234.44 772.224 1234.17C772.709 1233.9 772.952 1233.42 772.952 1232.75V1232.61C772.952 1230.85 772.472 1229.49 771.513 1228.52C770.567 1227.55 769.128 1227.07 767.199 1227.07C765.198 1227.07 763.63 1227.5 762.494 1228.38C761.357 1229.26 760.558 1230.19 760.097 1231.18L756.119 1229.76C756.83 1228.11 757.777 1226.82 758.96 1225.89C760.156 1224.96 761.458 1224.31 762.866 1223.94C764.287 1223.56 765.684 1223.37 767.057 1223.37C767.933 1223.37 768.939 1223.48 770.075 1223.69C771.223 1223.89 772.33 1224.31 773.396 1224.95C774.473 1225.59 775.366 1226.56 776.077 1227.85C776.787 1229.14 777.142 1230.87 777.142 1233.03V1251H772.952V1247.31H772.739C772.455 1247.9 771.981 1248.53 771.318 1249.21C770.655 1249.88 769.773 1250.46 768.673 1250.93C767.572 1251.4 766.228 1251.64 764.642 1251.64ZM765.281 1247.88C766.938 1247.88 768.335 1247.55 769.472 1246.9C770.62 1246.25 771.484 1245.41 772.064 1244.38C772.656 1243.35 772.952 1242.26 772.952 1241.13V1237.29C772.774 1237.51 772.384 1237.7 771.78 1237.88C771.188 1238.04 770.501 1238.19 769.72 1238.32C768.951 1238.44 768.199 1238.55 767.465 1238.64C766.743 1238.72 766.157 1238.8 765.707 1238.86C764.618 1239 763.6 1239.23 762.653 1239.55C761.718 1239.86 760.961 1240.32 760.381 1240.95C759.813 1241.57 759.528 1242.41 759.528 1243.47C759.528 1244.93 760.067 1246.03 761.144 1246.77C762.233 1247.51 763.612 1247.88 765.281 1247.88ZM782.376 1251V1247.09H783.37C784.187 1247.09 784.867 1246.93 785.412 1246.61C785.956 1246.28 786.394 1245.71 786.726 1244.89C787.069 1244.06 787.329 1242.92 787.507 1241.45C787.696 1239.97 787.832 1238.09 787.915 1235.8L788.412 1223.73H806.594V1251H802.404V1227.63H792.39L791.964 1237.36C791.869 1239.6 791.668 1241.57 791.36 1243.28C791.064 1244.97 790.608 1246.39 789.993 1247.54C789.389 1248.69 788.584 1249.55 787.578 1250.13C786.572 1250.71 785.311 1251 783.796 1251H782.376ZM817.905 1233.6H825.717C828.913 1233.6 831.358 1234.41 833.05 1236.03C834.743 1237.65 835.589 1239.71 835.589 1242.19C835.589 1243.83 835.211 1245.31 834.453 1246.65C833.695 1247.98 832.583 1249.04 831.115 1249.83C829.647 1250.61 827.848 1251 825.717 1251H814.282V1223.73H818.473V1247.09H825.717C827.374 1247.09 828.736 1246.66 829.801 1245.78C830.866 1244.9 831.399 1243.78 831.399 1242.41C831.399 1240.96 830.866 1239.78 829.801 1238.87C828.736 1237.96 827.374 1237.51 825.717 1237.51H817.905V1233.6ZM860.221 1235.45V1239.35H845.164V1235.45H860.221ZM846.158 1223.73V1251H841.968V1223.73H846.158ZM863.417 1223.73V1251H859.227V1223.73H863.417ZM875.26 1244.82L888.399 1223.73H893.229V1251H889.038V1229.91L875.97 1251H871.07V1223.73H875.26V1244.82ZM905.094 1244.82L918.233 1223.73H923.063V1251H918.872V1229.91L905.804 1251H900.904V1223.73H905.094V1244.82ZM915.463 1214.64H919.369C919.369 1216.55 918.707 1218.12 917.381 1219.34C916.055 1220.56 914.256 1221.17 911.983 1221.17C909.746 1221.17 907.964 1220.56 906.639 1219.34C905.325 1218.12 904.668 1216.55 904.668 1214.64H908.574C908.574 1215.56 908.829 1216.37 909.338 1217.07C909.858 1217.77 910.74 1218.12 911.983 1218.12C913.226 1218.12 914.114 1217.77 914.646 1217.07C915.191 1216.37 915.463 1215.56 915.463 1214.64ZM944.8 1251V1223.73H948.99V1235.59H951.76L961.561 1223.73H966.959L955.951 1236.87L967.101 1251H961.703L952.755 1239.49H948.99V1251H944.8ZM981.612 1251.57C979.15 1251.57 976.99 1250.98 975.131 1249.81C973.285 1248.64 971.84 1247 970.799 1244.89C969.769 1242.79 969.254 1240.32 969.254 1237.51C969.254 1234.66 969.769 1232.18 970.799 1230.07C971.84 1227.95 973.285 1226.3 975.131 1225.13C976.99 1223.96 979.15 1223.37 981.612 1223.37C984.074 1223.37 986.229 1223.96 988.075 1225.13C989.934 1226.3 991.378 1227.95 992.407 1230.07C993.449 1232.18 993.97 1234.66 993.97 1237.51C993.97 1240.32 993.449 1242.79 992.407 1244.89C991.378 1247 989.934 1248.64 988.075 1249.81C986.229 1250.98 984.074 1251.57 981.612 1251.57ZM981.612 1247.8C983.482 1247.8 985.021 1247.32 986.229 1246.37C987.436 1245.41 988.33 1244.15 988.91 1242.58C989.49 1241.02 989.78 1239.33 989.78 1237.51C989.78 1235.68 989.49 1233.98 988.91 1232.41C988.33 1230.84 987.436 1229.56 986.229 1228.59C985.021 1227.62 983.482 1227.14 981.612 1227.14C979.742 1227.14 978.203 1227.62 976.996 1228.59C975.788 1229.56 974.894 1230.84 974.314 1232.41C973.734 1233.98 973.444 1235.68 973.444 1237.51C973.444 1239.33 973.734 1241.02 974.314 1242.58C974.894 1244.15 975.788 1245.41 976.996 1246.37C978.203 1247.32 979.742 1247.8 981.612 1247.8ZM1000.37 1261.23V1223.73H1004.41V1228.06H1004.91C1005.22 1227.59 1005.65 1226.98 1006.19 1226.25C1006.75 1225.5 1007.54 1224.84 1008.57 1224.26C1009.61 1223.67 1011.02 1223.37 1012.8 1223.37C1015.09 1223.37 1017.12 1223.95 1018.87 1225.09C1020.62 1226.24 1021.99 1227.87 1022.97 1229.98C1023.95 1232.08 1024.44 1234.57 1024.44 1237.43C1024.44 1240.32 1023.95 1242.83 1022.97 1244.95C1021.99 1247.05 1020.63 1248.69 1018.89 1249.85C1017.15 1250.99 1015.14 1251.57 1012.87 1251.57C1011.11 1251.57 1009.71 1251.28 1008.66 1250.7C1007.6 1250.11 1006.79 1249.44 1006.23 1248.69C1005.66 1247.93 1005.22 1247.31 1004.91 1246.81H1004.56V1261.23H1000.37ZM1004.49 1237.36C1004.49 1239.42 1004.79 1241.24 1005.39 1242.81C1006 1244.38 1006.88 1245.6 1008.04 1246.49C1009.2 1247.37 1010.62 1247.8 1012.3 1247.8C1014.05 1247.8 1015.51 1247.34 1016.68 1246.42C1017.87 1245.48 1018.76 1244.23 1019.35 1242.65C1019.95 1241.07 1020.25 1239.3 1020.25 1237.36C1020.25 1235.45 1019.96 1233.72 1019.37 1232.18C1018.79 1230.63 1017.9 1229.4 1016.72 1228.5C1015.55 1227.59 1014.07 1227.14 1012.3 1227.14C1010.59 1227.14 1009.16 1227.57 1008 1228.43C1006.84 1229.28 1005.97 1230.48 1005.37 1232.02C1004.78 1233.55 1004.49 1235.33 1004.49 1237.36ZM1030.84 1251V1223.73H1052.28V1251H1048.09V1227.63H1035.03V1251H1030.84ZM1061.66 1261.23C1060.95 1261.23 1060.32 1261.17 1059.76 1261.05C1059.2 1260.94 1058.82 1260.84 1058.61 1260.73L1059.67 1257.04C1060.69 1257.3 1061.59 1257.39 1062.37 1257.32C1063.15 1257.25 1063.84 1256.9 1064.45 1256.27C1065.06 1255.66 1065.62 1254.66 1066.13 1253.27L1066.91 1251.14L1056.83 1223.73H1061.38L1068.9 1245.46H1069.19L1076.72 1223.73H1081.26L1069.68 1254.98C1069.16 1256.39 1068.52 1257.55 1067.75 1258.48C1066.98 1259.41 1066.09 1260.1 1065.07 1260.55C1064.06 1261 1062.93 1261.23 1061.66 1261.23ZM1096.9 1251.57C1094.34 1251.57 1092.14 1250.96 1090.29 1249.76C1088.44 1248.55 1087.02 1246.89 1086.03 1244.77C1085.03 1242.65 1084.54 1240.23 1084.54 1237.51C1084.54 1234.74 1085.05 1232.29 1086.06 1230.17C1087.09 1228.04 1088.53 1226.38 1090.36 1225.18C1092.21 1223.98 1094.36 1223.37 1096.82 1223.37C1098.74 1223.37 1100.47 1223.73 1102.01 1224.44C1103.55 1225.15 1104.81 1226.14 1105.79 1227.42C1106.77 1228.7 1107.38 1230.19 1107.62 1231.89H1103.43C1103.11 1230.65 1102.4 1229.55 1101.3 1228.59C1100.21 1227.62 1098.74 1227.14 1096.9 1227.14C1095.26 1227.14 1093.83 1227.56 1092.6 1228.41C1091.38 1229.26 1090.43 1230.44 1089.74 1231.98C1089.06 1233.51 1088.73 1235.3 1088.73 1237.36C1088.73 1239.47 1089.06 1241.31 1089.72 1242.87C1090.4 1244.43 1091.34 1245.64 1092.56 1246.51C1093.79 1247.37 1095.24 1247.8 1096.9 1247.8C1097.98 1247.8 1098.97 1247.61 1099.86 1247.24C1100.75 1246.86 1101.5 1246.31 1102.12 1245.6C1102.73 1244.89 1103.17 1244.04 1103.43 1243.05H1107.62C1107.38 1244.66 1106.8 1246.11 1105.86 1247.4C1104.94 1248.67 1103.71 1249.69 1102.19 1250.45C1100.67 1251.2 1098.91 1251.57 1096.9 1251.57ZM1126.88 1243.54V1239.92L1142.86 1214.64H1145.49V1220.25H1143.72L1131.64 1239.35V1239.64H1153.16V1243.54H1126.88ZM1144 1251V1242.44V1240.75V1214.64H1148.19V1251H1144ZM1173.95 1251V1223.73H1195.4V1251H1191.21V1227.63H1178.14V1251H1173.95ZM1214.13 1251.57C1211.67 1251.57 1209.51 1250.98 1207.65 1249.81C1205.8 1248.64 1204.36 1247 1203.32 1244.89C1202.29 1242.79 1201.77 1240.32 1201.77 1237.51C1201.77 1234.66 1202.29 1232.18 1203.32 1230.07C1204.36 1227.95 1205.8 1226.3 1207.65 1225.13C1209.51 1223.96 1211.67 1223.37 1214.13 1223.37C1216.59 1223.37 1218.75 1223.96 1220.59 1225.13C1222.45 1226.3 1223.9 1227.95 1224.93 1230.07C1225.97 1232.18 1226.49 1234.66 1226.49 1237.51C1226.49 1240.32 1225.97 1242.79 1224.93 1244.89C1223.9 1247 1222.45 1248.64 1220.59 1249.81C1218.75 1250.98 1216.59 1251.57 1214.13 1251.57ZM1214.13 1247.8C1216 1247.8 1217.54 1247.32 1218.75 1246.37C1219.96 1245.41 1220.85 1244.15 1221.43 1242.58C1222.01 1241.02 1222.3 1239.33 1222.3 1237.51C1222.3 1235.68 1222.01 1233.98 1221.43 1232.41C1220.85 1230.84 1219.96 1229.56 1218.75 1228.59C1217.54 1227.62 1216 1227.14 1214.13 1227.14C1212.26 1227.14 1210.72 1227.62 1209.52 1228.59C1208.31 1229.56 1207.41 1230.84 1206.83 1232.41C1206.25 1233.98 1205.96 1235.68 1205.96 1237.51C1205.96 1239.33 1206.25 1241.02 1206.83 1242.58C1207.41 1244.15 1208.31 1245.41 1209.52 1246.37C1210.72 1247.32 1212.26 1247.8 1214.13 1247.8ZM1232.89 1251V1223.73H1244.04C1246.97 1223.73 1249.3 1224.39 1251.03 1225.72C1252.76 1227.04 1253.62 1228.79 1253.62 1230.97C1253.62 1232.63 1253.13 1233.91 1252.15 1234.82C1251.17 1235.72 1249.91 1236.33 1248.37 1236.65C1249.38 1236.8 1250.35 1237.15 1251.3 1237.72C1252.26 1238.29 1253.05 1239.07 1253.68 1240.06C1254.31 1241.04 1254.62 1242.25 1254.62 1243.68C1254.62 1245.08 1254.26 1246.33 1253.55 1247.43C1252.84 1248.53 1251.83 1249.4 1250.5 1250.04C1249.17 1250.68 1247.59 1251 1245.74 1251H1232.89ZM1236.86 1247.16H1245.74C1247.19 1247.16 1248.32 1246.82 1249.13 1246.13C1249.95 1245.45 1250.36 1244.51 1250.36 1243.33C1250.36 1241.92 1249.95 1240.81 1249.13 1240.01C1248.32 1239.19 1247.19 1238.78 1245.74 1238.78H1236.86V1247.16ZM1236.86 1235.16H1244.04C1245.16 1235.16 1246.13 1235.01 1246.93 1234.7C1247.74 1234.38 1248.35 1233.93 1248.78 1233.35C1249.22 1232.76 1249.43 1232.06 1249.43 1231.26C1249.43 1230.11 1248.95 1229.21 1248 1228.56C1247.04 1227.89 1245.72 1227.56 1244.04 1227.56H1236.86V1235.16ZM1272.4 1251.57C1269.77 1251.57 1267.5 1250.99 1265.6 1249.83C1263.7 1248.66 1262.24 1247.02 1261.21 1244.93C1260.19 1242.82 1259.68 1240.37 1259.68 1237.58C1259.68 1234.78 1260.19 1232.32 1261.21 1230.19C1262.24 1228.05 1263.67 1226.38 1265.51 1225.18C1267.35 1223.98 1269.51 1223.37 1271.97 1223.37C1273.39 1223.37 1274.79 1223.61 1276.18 1224.08C1277.56 1224.56 1278.82 1225.33 1279.96 1226.39C1281.1 1227.44 1282 1228.84 1282.68 1230.58C1283.35 1232.32 1283.69 1234.46 1283.69 1237.01V1238.78H1262.67V1235.16H1279.43C1279.43 1233.62 1279.12 1232.25 1278.5 1231.04C1277.9 1229.84 1277.04 1228.88 1275.91 1228.18C1274.8 1227.49 1273.49 1227.14 1271.97 1227.14C1270.3 1227.14 1268.86 1227.55 1267.64 1228.38C1266.43 1229.2 1265.5 1230.26 1264.85 1231.58C1264.2 1232.89 1263.87 1234.3 1263.87 1235.8V1238.22C1263.87 1240.28 1264.23 1242.02 1264.94 1243.45C1265.66 1244.87 1266.66 1245.96 1267.94 1246.7C1269.22 1247.44 1270.7 1247.8 1272.4 1247.8C1273.5 1247.8 1274.49 1247.65 1275.38 1247.34C1276.28 1247.02 1277.05 1246.55 1277.71 1245.92C1278.36 1245.28 1278.86 1244.49 1279.22 1243.54L1283.26 1244.68C1282.84 1246.05 1282.12 1247.26 1281.11 1248.3C1280.11 1249.33 1278.87 1250.14 1277.39 1250.72C1275.91 1251.28 1274.24 1251.57 1272.4 1251.57ZM1290.06 1261.23V1223.73H1294.11V1228.06H1294.61C1294.92 1227.59 1295.34 1226.98 1295.89 1226.25C1296.44 1225.5 1297.24 1224.84 1298.27 1224.26C1299.31 1223.67 1300.72 1223.37 1302.49 1223.37C1304.79 1223.37 1306.81 1223.95 1308.57 1225.09C1310.32 1226.24 1311.68 1227.87 1312.67 1229.98C1313.65 1232.08 1314.14 1234.57 1314.14 1237.43C1314.14 1240.32 1313.65 1242.83 1312.67 1244.95C1311.68 1247.05 1310.32 1248.69 1308.58 1249.85C1306.84 1250.99 1304.84 1251.57 1302.56 1251.57C1300.81 1251.57 1299.41 1251.28 1298.36 1250.7C1297.3 1250.11 1296.49 1249.44 1295.92 1248.69C1295.35 1247.93 1294.92 1247.31 1294.61 1246.81H1294.25V1261.23H1290.06ZM1294.18 1237.36C1294.18 1239.42 1294.48 1241.24 1295.09 1242.81C1295.69 1244.38 1296.57 1245.6 1297.73 1246.49C1298.89 1247.37 1300.31 1247.8 1302 1247.8C1303.75 1247.8 1305.21 1247.34 1306.38 1246.42C1307.56 1245.48 1308.45 1244.23 1309.04 1242.65C1309.65 1241.07 1309.95 1239.3 1309.95 1237.36C1309.95 1235.45 1309.65 1233.72 1309.06 1232.18C1308.48 1230.63 1307.6 1229.4 1306.42 1228.5C1305.24 1227.59 1303.77 1227.14 1302 1227.14C1300.29 1227.14 1298.86 1227.57 1297.7 1228.43C1296.54 1229.28 1295.66 1230.48 1295.07 1232.02C1294.48 1233.55 1294.18 1235.33 1294.18 1237.36ZM1322.53 1223.73L1329.07 1234.88L1335.6 1223.73H1340.43L1331.63 1237.36L1340.43 1251H1335.6L1329.07 1240.42L1322.53 1251H1317.7L1326.37 1237.36L1317.7 1223.73H1322.53Z" fill="#9D9D9C"/>
</svg>
