<svg width="257" height="1286" viewBox="0 0 257 1286" fill="none" xmlns="http://www.w3.org/2000/svg">
<rect x="78" y="556" width="50" height="153" fill="#D8EBDE"/>
<path d="M254 1217.5V1282.5H3V3H80M254 1217.5H80V1241.5V1180.5M254 1217.5V1038.5M80 944.5V1038.5M80 688V711M80 874.5V711M80 571V554.5M80 235.5V252M80 469V252M80 3H254V235.5V252M80 3V177.5M80 1138.5V1038.5M80 914.5V1038.5M80 252H254M254 252V526V554.5M80 554.5V507V526V554.5ZM80 554.5H254M254 554.5V664V711M80 711H254M254 711V944.5V1038.5M80 1038.5H254" stroke="#9D9D9D" stroke-width="6"/>
<rect x="5" y="3" width="73" height="1279" fill="#D8EBDE"/>
<path d="M138 556V711" stroke="#9D9D9D" stroke-width="3"/>
<path d="M148 556V711" stroke="#9D9D9D" stroke-width="3"/>
<path d="M158 556V711" stroke="#9D9D9D" stroke-width="3"/>
<path d="M168 556V711" stroke="#9D9D9D" stroke-width="3"/>
<path d="M178 556V711" stroke="#9D9D9D" stroke-width="3"/>
<path d="M188 556V711" stroke="#9D9D9D" stroke-width="3"/>
<path d="M198 556V711" stroke="#9D9D9D" stroke-width="3"/>
<path d="M208 556V711" stroke="#9D9D9D" stroke-width="3"/>
<path d="M218 556V711" stroke="#9D9D9D" stroke-width="3"/>
<path d="M228 556V711" stroke="#9D9D9D" stroke-width="3"/>
</svg>
