<svg width="1343" height="1286" viewBox="0 0 1343 1286" fill="none" xmlns="http://www.w3.org/2000/svg">
<rect x="179" y="729.5" width="50" height="153" transform="rotate(-180 179 729.5)" fill="#A6DFE6"/>
<path d="M3.00011 68L3.00011 2.99998L254 3L254 1282.5L177 1282.5M3.00011 68L177 68L177 44L177 105M3.00011 68L3.00009 247M177 341L177 247M177 597.5L177 574.5M177 411L177 574.5M177 714.5L177 731M177 1050L177 1033.5M177 816.5L177 1033.5M177 1282.5L3 1282.5L3.00002 1050L3.00002 1033.5M177 1282.5L177 1108M177 147L177 247M177 371L177 247M177 1033.5L3.00002 1033.5M3.00002 1033.5L3.00005 759.5L3.00005 731M177 731L177 778.5L177 759.5L177 731ZM177 731L3.00005 731M3.00005 731L3.00006 621.5L3.00006 574.5M177 574.5L3.00006 574.5M3.00006 574.5L3.00008 341L3.00009 247M177 247L3.00009 247" stroke="#9D9D9D" stroke-width="6"/>
<rect x="252" y="1282.5" width="73" height="1279" transform="rotate(-180 252 1282.5)" fill="#A6DFE6"/>
<path d="M119 729.5L119 574.5" stroke="#9D9D9D" stroke-width="3"/>
<path d="M109 729.5L109 574.5" stroke="#9D9D9D" stroke-width="3"/>
<path d="M99 729.5L99 574.5" stroke="#9D9D9D" stroke-width="3"/>
<path d="M89 729.5L89 574.5" stroke="#9D9D9D" stroke-width="3"/>
<path d="M79 729.5L79 574.5" stroke="#9D9D9D" stroke-width="3"/>
<path d="M69 729.5L69 574.5" stroke="#9D9D9D" stroke-width="3"/>
<path d="M59 729.5L59 574.5" stroke="#9D9D9D" stroke-width="3"/>
<path d="M49 729.5L49 574.5" stroke="#9D9D9D" stroke-width="3"/>
<path d="M39 729.5L39 574.5" stroke="#9D9D9D" stroke-width="3"/>
<path d="M29 729.5L29 574.5" stroke="#9D9D9D" stroke-width="3"/>
<path d="M53.446 38.2358V35.1932L66.8693 13.9545H69.0767V18.6676H67.5852L57.4432 34.7159V34.9545H75.5199V38.2358H53.446ZM67.8239 44.5V37.3111V35.8942V13.9545H71.3438V44.5H67.8239ZM82.2987 44.7386C81.5629 44.7386 80.9315 44.4751 80.4045 43.9482C79.8775 43.4212 79.614 42.7898 79.614 42.054C79.614 41.3182 79.8775 40.6868 80.4045 40.1598C80.9315 39.6328 81.5629 39.3693 82.2987 39.3693C83.0344 39.3693 83.6658 39.6328 84.1928 40.1598C84.7198 40.6868 84.9833 41.3182 84.9833 42.054C84.9833 42.5412 84.859 42.9886 84.6104 43.3963C84.3718 43.804 84.0487 44.1321 83.641 44.3807C83.2433 44.6193 82.7958 44.7386 82.2987 44.7386ZM100.137 44.9176C97.8896 44.9176 95.9755 44.3061 94.3945 43.0831C92.8136 41.8501 91.6055 40.0653 90.7702 37.7287C89.935 35.3821 89.5174 32.5483 89.5174 29.2273C89.5174 25.9261 89.935 23.1072 90.7702 20.7706C91.6154 18.424 92.8285 16.6342 94.4094 15.4013C96.0004 14.1584 97.9094 13.5369 100.137 13.5369C102.364 13.5369 104.268 14.1584 105.849 15.4013C107.44 16.6342 108.653 18.424 109.488 20.7706C110.333 23.1072 110.756 25.9261 110.756 29.2273C110.756 32.5483 110.338 35.3821 109.503 37.7287C108.668 40.0653 107.46 41.8501 105.879 43.0831C104.298 44.3061 102.384 44.9176 100.137 44.9176ZM100.137 41.6364C102.364 41.6364 104.094 40.5625 105.327 38.4148C106.56 36.267 107.176 33.2045 107.176 29.2273C107.176 26.5824 106.893 24.3303 106.326 22.4709C105.77 20.6115 104.964 19.1946 103.91 18.2202C102.866 17.2457 101.608 16.7585 100.137 16.7585C97.9293 16.7585 96.2042 17.8473 94.9613 20.0249C93.7184 22.1925 93.0969 25.2599 93.0969 29.2273C93.0969 31.8722 93.3754 34.1193 93.9322 35.9688C94.489 37.8182 95.2894 39.2251 96.3335 40.1896C97.3874 41.1541 98.6552 41.6364 100.137 41.6364ZM127.162 13.9545V44.5H123.463V17.8324H123.284L115.827 22.7841V19.0256L123.463 13.9545H127.162Z" fill="#9D9D9D"/>
<path d="M45.446 161.736V158.693L58.8693 137.455H61.0767V142.168H59.5852L49.4432 158.216V158.455H67.5199V161.736H45.446ZM59.8239 168V160.811V159.394V137.455H63.3438V168H59.8239ZM74.2987 168.239C73.5629 168.239 72.9315 167.975 72.4045 167.448C71.8775 166.921 71.614 166.29 71.614 165.554C71.614 164.818 71.8775 164.187 72.4045 163.66C72.9315 163.133 73.5629 162.869 74.2987 162.869C75.0344 162.869 75.6658 163.133 76.1928 163.66C76.7198 164.187 76.9833 164.818 76.9833 165.554C76.9833 166.041 76.859 166.489 76.6104 166.896C76.3718 167.304 76.0487 167.632 75.641 167.881C75.2433 168.119 74.7958 168.239 74.2987 168.239ZM92.1367 168.418C89.8896 168.418 87.9755 167.806 86.3945 166.583C84.8136 165.35 83.6055 163.565 82.7702 161.229C81.935 158.882 81.5174 156.048 81.5174 152.727C81.5174 149.426 81.935 146.607 82.7702 144.271C83.6154 141.924 84.8285 140.134 86.4094 138.901C88.0004 137.658 89.9094 137.037 92.1367 137.037C94.364 137.037 96.2681 137.658 97.8491 138.901C99.44 140.134 100.653 141.924 101.488 144.271C102.333 146.607 102.756 149.426 102.756 152.727C102.756 156.048 102.338 158.882 101.503 161.229C100.668 163.565 99.4599 165.35 97.8789 166.583C96.2979 167.806 94.3839 168.418 92.1367 168.418ZM92.1367 165.136C94.364 165.136 96.0941 164.062 97.3271 161.915C98.56 159.767 99.1765 156.705 99.1765 152.727C99.1765 150.082 98.8931 147.83 98.3264 145.971C97.7695 144.112 96.9641 142.695 95.9102 141.72C94.8661 140.746 93.6083 140.259 92.1367 140.259C89.9293 140.259 88.2042 141.347 86.9613 143.525C85.7184 145.692 85.0969 148.76 85.0969 152.727C85.0969 155.372 85.3754 157.619 85.9322 159.469C86.489 161.318 87.2894 162.725 88.3335 163.69C89.3874 164.654 90.6552 165.136 92.1367 165.136ZM108.424 168V165.315L118.506 154.278C119.689 152.986 120.664 151.862 121.429 150.908C122.195 149.943 122.762 149.038 123.13 148.193C123.507 147.338 123.696 146.443 123.696 145.509C123.696 144.435 123.438 143.505 122.921 142.719C122.414 141.934 121.718 141.327 120.833 140.9C119.948 140.472 118.953 140.259 117.85 140.259C116.676 140.259 115.652 140.502 114.777 140.989C113.912 141.467 113.241 142.138 112.764 143.003C112.297 143.868 112.063 144.882 112.063 146.045H108.543C108.543 144.256 108.956 142.685 109.781 141.332C110.606 139.98 111.73 138.926 113.152 138.17C114.583 137.415 116.189 137.037 117.969 137.037C119.759 137.037 121.345 137.415 122.727 138.17C124.109 138.926 125.193 139.945 125.978 141.228C126.764 142.511 127.157 143.938 127.157 145.509C127.157 146.632 126.953 147.731 126.545 148.805C126.147 149.869 125.451 151.057 124.457 152.369C123.473 153.672 122.105 155.263 120.355 157.142L113.495 164.48V164.719H127.694V168H108.424Z" fill="#9D9D9D"/>
<path d="M41.446 411.736V408.693L54.8693 387.455H57.0767V392.168H55.5852L45.4432 408.216V408.455H63.5199V411.736H41.446ZM55.8239 418V410.811V409.394V387.455H59.3438V418H55.8239ZM70.2987 418.239C69.5629 418.239 68.9315 417.975 68.4045 417.448C67.8775 416.921 67.614 416.29 67.614 415.554C67.614 414.818 67.8775 414.187 68.4045 413.66C68.9315 413.133 69.5629 412.869 70.2987 412.869C71.0344 412.869 71.6658 413.133 72.1928 413.66C72.7198 414.187 72.9833 414.818 72.9833 415.554C72.9833 416.041 72.859 416.489 72.6104 416.896C72.3718 417.304 72.0487 417.632 71.641 417.881C71.2433 418.119 70.7958 418.239 70.2987 418.239ZM88.1367 418.418C85.8896 418.418 83.9755 417.806 82.3945 416.583C80.8136 415.35 79.6055 413.565 78.7702 411.229C77.935 408.882 77.5174 406.048 77.5174 402.727C77.5174 399.426 77.935 396.607 78.7702 394.271C79.6154 391.924 80.8285 390.134 82.4094 388.901C84.0004 387.658 85.9094 387.037 88.1367 387.037C90.364 387.037 92.2681 387.658 93.8491 388.901C95.44 390.134 96.6531 391.924 97.4883 394.271C98.3335 396.607 98.756 399.426 98.756 402.727C98.756 406.048 98.3384 408.882 97.5032 411.229C96.668 413.565 95.4599 415.35 93.8789 416.583C92.2979 417.806 90.3839 418.418 88.1367 418.418ZM88.1367 415.136C90.364 415.136 92.0941 414.062 93.3271 411.915C94.56 409.767 95.1765 406.705 95.1765 402.727C95.1765 400.082 94.8931 397.83 94.3264 395.971C93.7695 394.112 92.9641 392.695 91.9102 391.72C90.8661 390.746 89.6083 390.259 88.1367 390.259C85.9293 390.259 84.2042 391.347 82.9613 393.525C81.7184 395.692 81.0969 398.76 81.0969 402.727C81.0969 405.372 81.3754 407.619 81.9322 409.469C82.489 411.318 83.2894 412.725 84.3335 413.69C85.3874 414.654 86.6552 415.136 88.1367 415.136ZM114.745 418.418C112.776 418.418 111.021 418.08 109.48 417.403C107.949 416.727 106.73 415.788 105.826 414.585C104.931 413.371 104.444 411.964 104.364 410.364H108.123C108.202 411.348 108.54 412.198 109.137 412.914C109.733 413.62 110.514 414.167 111.478 414.555C112.443 414.942 113.512 415.136 114.685 415.136C115.998 415.136 117.161 414.908 118.175 414.45C119.189 413.993 119.985 413.357 120.561 412.541C121.138 411.726 121.426 410.781 121.426 409.707C121.426 408.584 121.148 407.594 120.591 406.739C120.034 405.874 119.219 405.198 118.145 404.711C117.071 404.224 115.759 403.98 114.208 403.98H111.762V400.699H114.208C115.421 400.699 116.485 400.48 117.4 400.043C118.324 399.605 119.045 398.989 119.562 398.193C120.089 397.398 120.353 396.463 120.353 395.389C120.353 394.355 120.124 393.455 119.667 392.69C119.209 391.924 118.563 391.327 117.728 390.9C116.902 390.472 115.928 390.259 114.804 390.259C113.75 390.259 112.756 390.452 111.821 390.84C110.897 391.218 110.141 391.77 109.554 392.496C108.968 393.212 108.65 394.077 108.6 395.091H105.02C105.08 393.49 105.562 392.088 106.467 390.885C107.372 389.672 108.555 388.727 110.017 388.051C111.488 387.375 113.104 387.037 114.864 387.037C116.753 387.037 118.374 387.42 119.726 388.185C121.078 388.941 122.118 389.94 122.843 391.183C123.569 392.426 123.932 393.768 123.932 395.21C123.932 396.93 123.48 398.397 122.575 399.61C121.68 400.823 120.462 401.663 118.921 402.131V402.369C120.85 402.687 122.356 403.508 123.44 404.83C124.524 406.143 125.066 407.768 125.066 409.707C125.066 411.368 124.613 412.859 123.708 414.182C122.814 415.494 121.591 416.528 120.039 417.284C118.488 418.04 116.723 418.418 114.745 418.418Z" fill="#9D9D9D"/>
<path d="M45.446 910.736V907.693L58.8693 886.455H61.0767V891.168H59.5852L49.4432 907.216V907.455H67.5199V910.736H45.446ZM59.8239 917V909.811V908.394V886.455H63.3438V917H59.8239ZM74.2987 917.239C73.5629 917.239 72.9315 916.975 72.4045 916.448C71.8775 915.921 71.614 915.29 71.614 914.554C71.614 913.818 71.8775 913.187 72.4045 912.66C72.9315 912.133 73.5629 911.869 74.2987 911.869C75.0344 911.869 75.6658 912.133 76.1928 912.66C76.7198 913.187 76.9833 913.818 76.9833 914.554C76.9833 915.041 76.859 915.489 76.6104 915.896C76.3718 916.304 76.0487 916.632 75.641 916.881C75.2433 917.119 74.7958 917.239 74.2987 917.239ZM92.1367 917.418C89.8896 917.418 87.9755 916.806 86.3945 915.583C84.8136 914.35 83.6055 912.565 82.7702 910.229C81.935 907.882 81.5174 905.048 81.5174 901.727C81.5174 898.426 81.935 895.607 82.7702 893.271C83.6154 890.924 84.8285 889.134 86.4094 887.901C88.0004 886.658 89.9094 886.037 92.1367 886.037C94.364 886.037 96.2681 886.658 97.8491 887.901C99.44 889.134 100.653 890.924 101.488 893.271C102.333 895.607 102.756 898.426 102.756 901.727C102.756 905.048 102.338 907.882 101.503 910.229C100.668 912.565 99.4599 914.35 97.8789 915.583C96.2979 916.806 94.3839 917.418 92.1367 917.418ZM92.1367 914.136C94.364 914.136 96.0941 913.062 97.3271 910.915C98.56 908.767 99.1765 905.705 99.1765 901.727C99.1765 899.082 98.8931 896.83 98.3264 894.971C97.7695 893.112 96.9641 891.695 95.9102 890.72C94.8661 889.746 93.6083 889.259 92.1367 889.259C89.9293 889.259 88.2042 890.347 86.9613 892.525C85.7184 894.692 85.0969 897.76 85.0969 901.727C85.0969 904.372 85.3754 906.619 85.9322 908.469C86.489 910.318 87.2894 911.725 88.3335 912.69C89.3874 913.654 90.6552 914.136 92.1367 914.136ZM107.708 910.736V907.693L121.131 886.455H123.338V891.168H121.847L111.705 907.216V907.455H129.782V910.736H107.708ZM122.086 917V909.811V908.394V886.455H125.605V917H122.086Z" fill="#9D9D9D"/>
<path d="M51.446 1167.74V1164.69L64.8693 1143.45H67.0767V1148.17H65.5852L55.4432 1164.22V1164.45H73.5199V1167.74H51.446ZM65.8239 1174V1166.81V1165.39V1143.45H69.3438V1174H65.8239ZM80.2987 1174.24C79.5629 1174.24 78.9315 1173.98 78.4045 1173.45C77.8775 1172.92 77.614 1172.29 77.614 1171.55C77.614 1170.82 77.8775 1170.19 78.4045 1169.66C78.9315 1169.13 79.5629 1168.87 80.2987 1168.87C81.0344 1168.87 81.6658 1169.13 82.1928 1169.66C82.7198 1170.19 82.9833 1170.82 82.9833 1171.55C82.9833 1172.04 82.859 1172.49 82.6104 1172.9C82.3718 1173.3 82.0487 1173.63 81.641 1173.88C81.2433 1174.12 80.7958 1174.24 80.2987 1174.24ZM98.1367 1174.42C95.8896 1174.42 93.9755 1173.81 92.3945 1172.58C90.8136 1171.35 89.6055 1169.57 88.7702 1167.23C87.935 1164.88 87.5174 1162.05 87.5174 1158.73C87.5174 1155.43 87.935 1152.61 88.7702 1150.27C89.6154 1147.92 90.8285 1146.13 92.4094 1144.9C94.0004 1143.66 95.9094 1143.04 98.1367 1143.04C100.364 1143.04 102.268 1143.66 103.849 1144.9C105.44 1146.13 106.653 1147.92 107.488 1150.27C108.333 1152.61 108.756 1155.43 108.756 1158.73C108.756 1162.05 108.338 1164.88 107.503 1167.23C106.668 1169.57 105.46 1171.35 103.879 1172.58C102.298 1173.81 100.384 1174.42 98.1367 1174.42ZM98.1367 1171.14C100.364 1171.14 102.094 1170.06 103.327 1167.91C104.56 1165.77 105.176 1162.7 105.176 1158.73C105.176 1156.08 104.893 1153.83 104.326 1151.97C103.77 1150.11 102.964 1148.69 101.91 1147.72C100.866 1146.75 99.6083 1146.26 98.1367 1146.26C95.9293 1146.26 94.2042 1147.35 92.9613 1149.52C91.7184 1151.69 91.0969 1154.76 91.0969 1158.73C91.0969 1161.37 91.3754 1163.62 91.9322 1165.47C92.489 1167.32 93.2894 1168.73 94.3335 1169.69C95.3874 1170.65 96.6552 1171.14 98.1367 1171.14ZM123.969 1174.42C122.219 1174.42 120.643 1174.07 119.241 1173.37C117.839 1172.68 116.716 1171.72 115.87 1170.51C115.025 1169.3 114.563 1167.91 114.483 1166.36H118.063C118.202 1167.75 118.828 1168.89 119.942 1169.79C121.066 1170.69 122.408 1171.14 123.969 1171.14C125.222 1171.14 126.336 1170.84 127.31 1170.26C128.294 1169.67 129.065 1168.86 129.622 1167.84C130.189 1166.81 130.472 1165.64 130.472 1164.34C130.472 1163 130.179 1161.81 129.592 1160.77C129.015 1159.72 128.22 1158.89 127.206 1158.28C126.191 1157.67 125.033 1157.37 123.73 1157.36C122.796 1157.35 121.836 1157.49 120.852 1157.79C119.868 1158.08 119.057 1158.45 118.421 1158.91L114.961 1158.49L116.81 1143.45H132.679V1146.74H119.912L118.838 1155.74H119.017C119.644 1155.25 120.429 1154.83 121.374 1154.51C122.319 1154.18 123.303 1154.01 124.327 1154.01C126.196 1154.01 127.862 1154.46 129.324 1155.36C130.795 1156.24 131.949 1157.45 132.784 1159C133.629 1160.54 134.051 1162.3 134.051 1164.28C134.051 1166.22 133.614 1167.96 132.739 1169.5C131.874 1171.02 130.681 1172.22 129.159 1173.11C127.638 1173.98 125.908 1174.42 123.969 1174.42Z" fill="#9D9D9D"/>
<rect x="1342" y="3" width="1" height="1" fill="#D9D9D9"/>
</svg>
