<svg width="434" height="434" viewBox="0 0 434 434" fill="none" xmlns="http://www.w3.org/2000/svg">
<mask id="mask0_25_594" style="mask-type:luminance" maskUnits="userSpaceOnUse" x="83" y="43" width="268" height="348">
<path d="M83.1699 43.4H350.731V390.6H83.1699V43.4Z" fill="white"/>
</mask>
<g mask="url(#mask0_25_594)">
<path d="M217 250.464C171.696 250.464 134.97 213.739 134.97 168.42C134.97 123.116 171.696 86.3909 217 86.3909C262.305 86.3909 299.03 123.116 299.03 168.42C299.03 213.739 262.305 250.464 217 250.464ZM217 43.5085C143.103 43.5085 83.1973 103.406 83.1973 177.303C83.1973 251.2 217 390.645 217 390.645C217 390.645 350.802 251.2 350.802 177.303C350.802 103.406 290.898 43.5085 217 43.5085Z" fill="#07476B"/>
</g>
</svg>
